<svg width="179" height="145" viewBox="0 0 179 145" fill="none" xmlns="http://www.w3.org/2000/svg">
<g clip-path="url(#clip0_1564_3)">
<rect width="179" height="145" fill="white"/>
<rect width="179" height="145" fill="white"/>
<path d="M9 112.5L7 113L8.5 115.5L19 115L32 100.5L64 99.5L72 96L87.5 95.5L95.5 85L96.5 79L99.5 77.5L105 77L107 75.5H109.5L111 77L114 76.5L117 73.5L126 73L129 68.5V63L131 61L134.5 60.5L138.5 65L142 65.5L144 62L145.5 61.5L151 64L154 65.5L157.5 62.5L162.5 58.5L167.5 59L172.5 56.5L172 54.5V50.5L172.5 48L168 42L165.5 41H162.5L159 43L158 46.5L155 44.5H151L148.5 47L147 46L143.5 45.5V44L140 43.5L138 45L135.5 47L134 45.5L133 44L132 41L126 42.5L127 45L125 47.5L123.5 48.5V46L121 45.5L119 44.5L118.5 51L117.5 55H116L114 54L113.5 51.5L111.5 47L106 46.5L104.5 48.5H101.5L99 47L95.5 45.5H91.5L89.5 44L87.5 41.5V39L85 36.5H82L80 38L78 39L74 38.5L72.5 37.5L70 33L69 32H67.5L65.5 34H65L63 32L60.5 31.5L59.5 31L57.5 31.5L53.5 33.5V35L55 40V42L56.5 44V48L55 48.5V52L53.5 54.5H50L49 53.5H45.5L43 54.5L39.5 55.5L36.5 58L34 62H31.5L30 65.5L28 67H24.5L24 72H23.5L21.5 75L18.5 78H16L14.5 79.5L13.5 83L12 84L11.5 87.5L10 88V93.5L11 95.5V98.5L13 100V106L12 106.5L9 112.5Z" fill="#9CB8FC" stroke="#7B9AE3" stroke-width="2" stroke-linejoin="round"/>
</g>
<defs>
<clipPath id="clip0_1564_3">
<rect width="179" height="145" fill="white"/>
</clipPath>
</defs>
</svg>
