<svg width="179" height="145" viewBox="0 0 179 145" fill="none" xmlns="http://www.w3.org/2000/svg">
<g clip-path="url(#clip0_1564_3)">
<rect width="179" height="145" fill="white"/>
<rect width="179" height="145" fill="white"/>
<path d="M33.4231 76.35L32.7308 79.15L31.6923 83L32.7308 84.05L34.4615 86.85V91.4V95.95L36.5385 98.05V102.6L41.0385 106.1L41.3846 107.5L40 109.6L40.6923 113.45H44.5L45.5385 114.5L49.3462 114.15L52.1154 112.05H54.8846L55.5769 114.15L57.6538 115.9L58.6923 117.65L59.7308 119.4V121.15H58.6923V122.9L62.1538 126.4V128.5L63.8846 129.9L64.9231 128.5H67L69.0769 129.9L71.1538 128.5H72.5385H74.9615H77.7308L78.7692 126.4L80.1538 125.35L82.9231 124.65L84.3077 122.2L86.0385 121.15L88.1154 122.9V124.65L90.8846 126.4H93.6538V128.5H92.2692L90.8846 129.9L91.5769 132L95.3846 134.45V135.85L97.4615 138.3L101.269 139L103.346 137.6L105.423 135.85L106.808 134.45L108.192 135.85H109.577L110.962 134.45L113.038 136.9H115.115L116.846 137.6L117.538 136.9H119.615L121.692 137.6L123.423 135.85L126.885 134.45L130 132.7L130.692 131.3L132.077 130.6L134.846 127.45L135.538 125.853V124.65L136.577 122.9L136.923 119.05L136.231 118.35L134.846 117.3V115.55L135.538 114.15L137.962 113.8L139 112.4L139.346 111.35L138.308 109.419L136.577 109.25L136.231 107.5L137.269 107.15L137.962 104.7L138.308 102.95L140.038 101.55V97.7L139.346 96.65V92.45L135.885 92.8L134.846 91.75L134.154 90.35L132.077 90L131.385 88.95L130 88.25V83.7L131.038 83.35L132.077 81.25L133.115 79.5L134.154 77.75V75.3L133.462 73.9L132.077 72.5L132.769 69.7L134.154 68.3L135.885 67.25L136.231 66.2L136.577 64.1L137.269 62.7L136.923 57.8L137.615 56.05V55L136.577 54.3L135.538 52.9L136.923 52.2L136.231 50.1L135.192 48.7L133.115 47.65V41.35L133.808 39.95L135.192 38.9L135.538 37.15L136.923 35.75H138.308L140.038 34.35L142.808 32.95L144.192 31.9V27.35H145.231L146.615 25.95L148 25.25V23.85L145.577 22.1L144.192 20.35L141.769 18.6L141.077 17.2L141.769 15.8L143.154 14.4V10.55L144.538 10.2V6.7H139.346L138.654 6H137.269L129.308 11.6L126.885 14.75H125.846L123.077 12.65L118.577 13.7L112.346 10.2H104.038L101.962 22.8L95.7308 28.75L91.2308 27.7L87.0769 28.05L85 24.9H63.8846L59.7308 28.4L56.2692 25.6L48.6538 27.35L47.9615 31.2L42.0769 36.1L41.3846 38.55L36.1923 45.2L35.5 49.05L32.3846 52.55L33.0769 56.05L31 57.45L31.3462 61.3L33.7692 64.1L33.4231 69L35.5 71.45V75.3L33.4231 76.35Z" fill="#9CB8FC" stroke="#7B9AE3" stroke-width="2" stroke-linejoin="round"/>
</g>
<defs>
<clipPath id="clip0_1564_3">
<rect width="179" height="145" fill="white"/>
</clipPath>
</defs>
</svg>
