<svg width="179" height="145" viewBox="0 0 179 145" fill="none" xmlns="http://www.w3.org/2000/svg">
<g clip-path="url(#clip0_1564_3)">
<rect width="179" height="145" fill="white"/>
<rect width="179" height="145" fill="white"/>
<path d="M32.9658 133L29.0569 132.281V130.126L30.4784 128.329L29.7677 123.659L27.2802 120.425L25.1481 119.347L24.7927 117.551L22.3052 116.832L24.7927 115.036L23.7267 113.599L21.2392 112.88H19.8178V108.569L18.3964 107.132H17.3303L17.6856 102.461L15.9089 101.383L14.4875 100.665L13.4214 99.5868L15.5535 97.7904V96.7126L13.0661 95.6347L12 93.479L13.7768 91.6826L15.9089 90.6048L17.6856 88.0898L18.041 84.8563L20.8838 85.9341H23.0159L24.7927 84.8563L26.9248 82.3413V80.1856H27.9909H30.4784L33.3212 78.7485L37.2301 75.515L37.5854 77.6707L39.0068 78.7485L42.9157 78.3892L45.0478 80.1856L46.8246 81.2635L47.8907 77.6707L49.3121 74.7964H56.4191L58.1959 73L61.3941 75.515H63.1708L64.5923 74.0778L69.9226 74.4371L70.6333 73V70.8443L72.7654 67.6108L75.9636 64.7365L77.385 63.2994L79.5171 60.0659L80.5831 58.2695L77.7403 56.4731L79.5171 55.0359L81.2939 53.9581L80.5831 49.2874L81.2939 46.7725V44.976L81.6492 43.8982L82.0046 39.9461L87.3349 36.7126L90.533 36.3533L93.0205 37.7904L99.7722 39.5868H101.904L103.326 38.1497L104.747 35.6347L106.879 33.8383L108.656 31.3234V29.1677L110.788 28.0898V27.012L109.367 25.2156V23.0599L111.499 20.5449L113.986 19.4671L115.052 18.3892V16.9521L114.342 15.8743V14.0778L115.408 13H118.251L120.027 14.7964L121.093 16.5928L125.002 18.3892L126.068 20.9042V25.2156L129.622 27.012L134.241 31.6826V33.8383L133.175 36.3533L131.754 38.1497L133.531 40.6647L136.374 43.5389L140.282 44.2575L140.993 49.2874L143.481 50.3653L147.39 53.9581L149.166 57.9102L147.39 62.5808L149.166 66.1737L156.273 69.4072L158.761 73.7186L164.802 81.982L168 86.2934L166.934 87.7305L158.405 86.2934L151.654 90.6048L154.141 94.5569L153.075 95.994L143.481 100.305H140.282L135.663 92.4012H128.911L123.226 98.8683V102.102L122.515 103.18L117.895 101.383L113.986 105.695H111.854L109.011 100.305H104.392L103.326 102.102H96.9294V107.132L91.5991 114.317H89.8223L86.6241 113.599H82.7153L78.8064 115.754L75.6082 114.317L65.6583 113.599L62.4601 113.24L58.5513 116.473L54.6424 121.144V127.252H52.1549L50.3781 125.814H48.246L46.4692 129.048H44.6925L40.7836 132.281L38.2961 130.844L32.9658 133Z" fill="#9CB8FC" stroke="#7B9AE3" stroke-width="2" stroke-linejoin="round"/>
</g>
<defs>
<clipPath id="clip0_1564_3">
<rect width="179" height="145" fill="white"/>
</clipPath>
</defs>
</svg>
