<svg width="179" height="145" viewBox="0 0 179 145" fill="none" xmlns="http://www.w3.org/2000/svg">
<g clip-path="url(#clip0_1564_3)">
<rect width="179" height="145" fill="white"/>
<rect width="179" height="145" fill="white"/>
<path d="M164.877 49.5705L163.83 46.4233H160.339V48.8712H156.499L154.754 46.4233L153.008 44.6748L150.914 46.773V50.6196H149.168L148.819 52.3681L145.678 53.4172L144.979 48.1718L143.583 46.773V46.4233L140.092 43.6258L137.998 42.9264L138.696 38.7301L133.111 34.184H131.016L131.366 30.6871L131.016 27.5399L128.224 26.1411L125.431 26.8405L122.639 29.9877L115.657 27.5399L111.468 26.1411L106.93 27.5399L101.694 22.6442L96.4579 18.7975L93.3162 16.3497H89.1273H87.3819H83.193L77.9569 16L74.8152 18.7975L70.6263 21.2454L66.4374 22.2945L63.9938 23.6933L61.5503 27.8896L58.7577 32.7853L57.0123 34.8834V36.2822L58.7577 37.681V41.5276L58.0595 45.0245L54.5688 42.9264L50.3799 40.4785L46.191 39.7791L42.7002 40.4785L40.9548 42.5767L37.115 44.3252L32.577 43.2761L27.6899 44.3252L29.4353 47.4724L33.9733 49.5705L38.1622 51.319L37.115 53.7669L32.577 56.5644L27.6899 59.7117L24.1992 61.1104V64.6074L25.5955 69.8528V73.3497L27.6899 76.4969L26.9918 79.2945L24.1992 81.7423L20.3593 84.1902L17.2177 85.9386L13.0287 91.8834L9.53799 93.6319L7.44353 95.0307L6.3963 97.8282V100.975L8.83984 103.423L8.14168 105.521V111.816L9.53799 114.613H6.3963L5 116.362L6.3963 120.209L7.44353 122.307L10.5852 124.405H13.0287L14.4251 126.153H19.3121L21.4066 130L23.501 128.252L26.6427 127.552L28.7372 124.405H30.4825L32.577 126.853L36.0678 128.951H40.6058L45.8419 127.552H48.9836H56.3142L60.8522 130L67.4846 127.552L74.117 124.405H79.7023H86.3347L91.5708 122.307L89.8255 117.761L90.8727 115.313V109.368L88.4292 107.62L89.8255 105.521L88.4292 103.423L84.9384 101.325L83.8912 98.8773L86.3347 97.4785H88.4292L89.1273 95.7301L86.3347 92.9325L83.8912 91.5337V90.135H85.6366V88.7362L84.9384 86.9877V84.8896H85.6366L87.0329 86.638L89.8255 86.9877L92.9671 85.589V84.5399H100.647L102.043 83.1411L105.883 83.4908L107.977 85.589L110.77 84.5399L113.563 84.8896V85.589L117.402 84.1902L120.195 83.1411L124.384 83.4908L128.224 85.589L131.016 83.4908H133.809L134.507 88.0368H136.253L136.951 86.9877L137.998 88.0368L136.951 90.135L138.696 92.9325L141.489 94.3313V96.4294L138.696 97.4785L139.394 99.5767L142.536 100.626L143.583 98.8773L144.281 97.4785H146.027L146.725 99.5767L148.819 100.626L151.263 100.276L152.31 98.8773H155.103L156.848 99.5767L158.943 97.8282L159.641 94.681L163.83 92.5828L162.782 91.8834V89.7853L160.339 87.6871V84.1902V82.7914L162.084 81.3926H167.32L169.764 84.1902H173.604L173.953 81.3926V78.2454L172.906 75.4478L173.953 75.0982L175 72.6503V69.8528L173.255 66.7055L169.415 65.3067L169.764 57.2638V53.0675L172.207 50.9693L171.16 49.5705L168.368 49.2209L166.622 50.9693L164.877 49.5705Z" fill="#9CB8FC"/>
<path d="M7.44353 95.0307L5 93.6319M7.44353 95.0307L9.53799 93.6319L13.0287 91.8834L17.2177 85.9386L20.3593 84.1902L24.1992 81.7423L26.9918 79.2945L27.6899 76.4969L25.5955 73.3497V69.8528L24.1992 64.6074V61.1104L27.6899 59.7117L32.577 56.5644L37.115 53.7669L38.1622 51.319L33.9733 49.5706L29.4353 47.4724L27.6899 44.3252L32.577 43.2761L37.115 44.3252L40.9548 42.5767L42.7002 40.4785L46.191 39.7791L50.3799 40.4785L54.5688 42.9264L58.0595 45.0245L58.7577 41.5276V37.681L57.0123 36.2822V34.8834L58.7577 32.7853L61.5503 27.8896L63.9938 23.6933L66.4374 22.2945L70.6263 21.2454L74.8152 18.7975L77.9569 16L83.193 16.3497H87.3819H89.1273H93.3162L96.4579 18.7975L101.694 22.6442L106.93 27.5399L111.468 26.1411L115.657 27.5399L122.639 29.9877L125.431 26.8405L128.224 26.1411L131.016 27.5399L131.366 30.6871L131.016 34.184H133.111L138.696 38.7301L137.998 42.9264L140.092 43.6258L143.583 46.4233V46.773L144.979 48.1718L145.678 53.4172L148.819 52.3681L149.168 50.6196H150.914V46.773L153.008 44.6748L154.754 46.4233L156.499 48.8712H160.339V46.4233H163.83L164.877 49.5706L166.622 50.9693L168.368 49.2209L171.16 49.5706L172.207 50.9693L169.764 53.0675V57.2638L169.415 65.3067L173.255 66.7055L175 69.8528V72.6503L173.953 75.0982L172.906 75.4479L173.953 78.2454V81.3926L173.604 84.1902H169.764L167.32 81.3926H162.084L160.339 82.7914V84.1902V87.6871L162.782 89.7853V91.8834L163.83 92.5828L159.641 94.681L158.943 97.8282L156.848 99.5767L155.103 98.8773H152.31L151.263 100.276L148.819 100.626L146.725 99.5767L146.027 97.4785H144.281L143.583 98.8773L142.536 100.626L139.394 99.5767L138.696 97.4785L141.489 96.4294V94.3313L138.696 92.9325L136.951 90.135L137.998 88.0368L136.951 86.9877L136.253 88.0368H134.507L133.809 83.4908H131.016L128.224 85.589L124.384 83.4908L120.195 83.1411L117.402 84.1902L113.563 85.589V84.8896L110.77 84.5399L107.977 85.589L105.883 83.4908L102.043 83.1411L100.647 84.5399H92.9671V85.589L89.8255 86.9877L87.0329 86.638L85.6365 84.8896H84.9384V86.9877L85.6365 88.7362V90.135H83.8912V91.5337L86.3347 92.9325L89.1273 95.7301L88.4292 97.4785H86.3347L83.8912 98.8773L84.9384 101.325L88.4292 103.423L89.8255 105.521L88.4292 107.62L90.8727 109.368V115.313L89.8255 117.761L91.5708 122.307L86.3347 124.405H79.7023H74.117L67.4846 127.552L60.8522 130L56.3142 127.552H48.9836H45.8419L40.6057 128.951H36.0678L32.577 126.853L30.4825 124.405H28.7372L26.6427 127.552L23.501 128.252L21.4066 130L19.3121 126.153H14.4251L13.0287 124.405H10.5852L7.44353 122.307L6.3963 120.209L5 116.362L6.3963 114.613H9.53799L8.14168 111.816V105.521L8.83984 103.423L6.3963 100.975V97.8282L7.44353 95.0307Z" stroke="#7B9AE3" stroke-width="2" stroke-linejoin="round"/>
</g>
<defs>
<clipPath id="clip0_1564_3">
<rect width="179" height="145" fill="white"/>
</clipPath>
</defs>
</svg>
