<svg width="179" height="145" viewBox="0 0 179 145" fill="none" xmlns="http://www.w3.org/2000/svg">
<g clip-path="url(#clip0_1564_3)">
<rect width="179" height="145" fill="white"/>
<rect width="179" height="145" fill="white"/>
<path d="M138.061 65.4317L139 69.8297L138.061 70.7722L136.182 72.0288H133.051L131.486 72.9712L129.92 75.1703V80.1966L129.294 82.7098L125.537 84.2806L123.032 86.7938L119.275 87.1079L114.578 88.6787L112.7 90.2494L111.76 93.3909L112.387 99.0456L111.76 102.501L109.569 105.329L110.508 107.842L113.952 107.528V110.041L111.134 112.24L110.195 114.753L112.387 117.58L111.447 120.408L110.195 122.921L108.316 120.408H105.812H97.6709L95.7923 122.921L93.6006 123.863L88.9042 124.492L88.278 122.921L86.7125 122.293L85.147 122.921L80.7636 131.403L77.9457 134.859L76.0671 133.602H73.5623L66.6741 138L64.7955 135.487L65.4217 133.602L66.6741 132.659H68.5527V131.403L67.6134 131.089V129.518L69.1789 128.261L67.6134 127.633H65.4217L64.7955 127.005L63.8562 124.806L61.6645 122.293L60.099 121.664L58.8466 120.408L57.9073 119.465L58.8466 118.209L60.099 116.324L61.0383 115.381L58.8466 115.067V113.811L60.099 112.24L62.2907 113.496H64.1693L65.4217 111.612L66.0479 108.156H69.1789L69.8051 105.957L71.0575 104.072L69.8051 102.501L66.0479 102.187L64.7955 101.245L62.2907 99.3597L61.0383 97.789L58.8466 96.5324L56.655 98.4173L55.4026 97.1607L52.5847 95.5899L50.0799 94.3333V91.8201L48.2013 90.8777L46.9489 87.1079L43.1917 85.8513V81.7674L41.6262 80.8249L41 79.5684L44.7572 77.6835L43.8179 77.0552V75.1703L41.6262 73.2854V70.1439V68.8873L43.1917 67.6307H47.8882L50.0799 70.1439H53.524L53.8371 67.6307V64.8034L52.8978 62.2902L53.8371 61.976L54.7764 59.777V57.2638L53.2109 54.4365L49.7668 53.1799L50.0799 45.9544V42.1847L52.2716 40.2998L51.3323 39.0432L48.8275 38.729L47.262 40.2998L45.6965 39.0432L44.7572 36.2158V30.8753L42.8786 28.6763V26.4772L43.8179 25.8489L45.6965 27.4197H47.8882L48.5144 25.2206H51.9585L54.1502 26.4772H55.4026V24.2782L58.8466 23.0216L60.4121 21.4508L61.0383 18.9377L65.4217 15.1679V14.5396L64.4824 13.5971V11.7122H66.9872V10.1415V9.82734L67.6134 7.6283L70.1182 7L71.0575 8.88489L73.2492 9.82734H75.4409L76.0671 8.25659L77.0064 7.6283L77.9457 9.82734L77.0064 10.1415V11.7122L78.2588 13.5971L81.7029 13.9113L83.2684 16.1103H88.278L91.4089 15.1679L93.2875 13.9113V12.6547H97.984L101.115 13.9113V16.1103L103.307 18.6235V22.3933L104.872 24.5923L102.681 26.7914V28.6763L104.246 30.8753L104.872 35.9017L106.438 36.53L107.064 39.6715H109.569L111.447 41.5564L113.326 44.3837V45.3261L111.447 46.5827V49.0959L115.831 49.7242L118.335 49.0959L119.901 51.6091V53.8082L123.032 56.3213L126.789 56.0072L128.668 57.8921L128.355 60.4053L129.607 62.2902H137.435L138.061 65.4317Z" fill="#9CB8FC" stroke="#7B9AE3" stroke-width="2" stroke-linejoin="round"/>
</g>
<defs>
<clipPath id="clip0_1564_3">
<rect width="179" height="145" fill="white"/>
</clipPath>
</defs>
</svg>
