<svg width="179" height="145" viewBox="0 0 179 145" fill="none" xmlns="http://www.w3.org/2000/svg">
<g clip-path="url(#clip0_1564_3)">
<rect width="179" height="145" fill="white"/>
<rect width="179" height="145" fill="white"/>
<path d="M86.2257 124.499L83.9144 121.412V118.326L85.4553 116.783L86.2257 114.469V111.769L83.144 109.454L81.2179 105.982L83.144 103.668V101.739L81.6031 100.196V97.8813L77.751 94.4095L75.0545 91.3234L73.1284 89.3947H70.8171L68.8911 90.9377L65.4241 89.3947L64.6537 85.9228L65.4241 81.6795L66.1946 80.5223V78.2077H62.7276V79.365L58.8755 80.5223L56.179 78.5935L53.8677 78.2077V75.8932L51.1712 73.5786L50.0156 72.0356V69.3353L48.8599 67.7923H45.7782L44.6226 65.4777L42.3113 63.1632L40.3852 62.3917L40 61.6202V57.7626L41.5409 56.2196V53.5193L40.3852 51.9763V49.276L41.5409 48.1187V46.5757L42.6965 45.0326L43.0817 42.3323L44.6226 41.5608L46.1634 40.4036H48.0895L48.4747 37.3175L49.6304 35.3887L50.786 34.2315H53.0973L54.2529 35.3887H60.4163L61.9572 33.8457L63.1128 34.6172L64.6537 35.3887L66.5798 33.8457H68.5058L73.5136 34.6172L75.0545 34.2315L75.8249 33.8457H78.1362L79.2918 33.0742H84.2996L85.07 30.3739L84.2996 28.8309L81.9883 28.4451L80.8327 25.7448L81.9883 23.0445L83.144 21.8872L83.9144 19.5727V17.2582L83.144 16.1009L84.2996 14.5579L85.07 13.7864L86.2257 12.2433L85.07 10.3145L85.8405 8.77151L86.6109 8L91.6187 8.38576L93.93 8.77151L94.3152 9.92878H96.2412L98.5525 11.4718H99.7082L101.249 14.5579L102.79 17.6439V20.3442L103.946 24.5875V28.4451L105.872 29.9881L106.257 31.9169L104.716 34.2315L102.79 34.6172L103.56 35.7745V38.4748H104.716L105.872 40.0178H109.724L110.109 41.5608L108.953 42.7181L107.798 43.4896L105.872 43.8754V45.8042L107.027 46.5757L107.798 48.5045L110.109 50.4332H112.805L114.732 51.5905L116.272 53.1335V55.8338L116.658 57.7626L117.813 56.6053H120.125L119.739 59.3056V62.0059H120.895L122.051 60.0772H126.288L127.829 60.8487L130.525 61.6202V62.7774L132.837 63.9347H134.763L136.303 66.2493L137.844 67.4065V70.4926L139 71.6498L138.615 74.7359L137.074 75.1217L133.992 76.6647V77.822L135.148 81.6795V83.2225L136.303 84.7656V87.8516L135.148 88.2374V90.9377L133.992 92.8665H131.296L130.525 92.095H127.829L125.903 92.8665L123.206 93.638L120.895 95.5668L118.969 98.6528H117.043L115.887 101.353L114.346 102.51H111.65L111.265 106.368H110.879L109.339 108.682L107.027 110.997H105.101L103.946 112.154L103.175 114.855L102.019 115.626L101.634 118.326L100.479 118.712V122.955L101.249 124.499V126.813L102.79 127.97V132.599L102.019 132.985L99.7082 137.614L98.1673 138L95.0856 133.757L91.2335 132.985L88.1517 129.513V126.813L86.2257 124.499Z" fill="#9CB8FC" stroke="#7B9AE3" stroke-width="2" stroke-linejoin="round"/>
</g>
<defs>
<clipPath id="clip0_1564_3">
<rect width="179" height="145" fill="white"/>
</clipPath>
</defs>
</svg>
