<svg width="179" height="145" viewBox="0 0 179 145" fill="none" xmlns="http://www.w3.org/2000/svg">
<g clip-path="url(#clip0_1564_3)">
<rect width="179" height="145" fill="white"/>
<rect width="179" height="145" fill="white"/>
<path d="M64.1694 17.4545L61.8208 16.1039L61.4853 15.7662L59.1368 17.1169L58.4658 19.1429V21.5065H57.4593L55.4463 19.1429L54.1042 20.1558L54.7752 21.8442V24.5455L52.0912 27.9221V29.2727L53.0977 30.6234V31.974L50.7492 33.6623V35.013L49.0717 36.3636L48.4007 38.7273V40.0779L47.0586 41.0909L46.3876 42.7792L44.7101 43.4545L43.7036 44.1299H42.3616L42.6971 45.8182L43.3681 46.4935V49.5325V50.8831L44.0391 51.2208V53.2468L43.3681 54.9351V59.3247L43.7036 60L44.0391 61.013L44.7101 61.6883V63.039V64.0519L43.3681 64.7273L43.0326 66.4156L42.3616 68.4416L41.6906 69.4545L40.684 71.8182H38L39.342 73.8442L40.3485 75.8701L42.3616 76.8831L43.3681 78.2338L43.7036 79.9221L43.0326 81.2727L41.6906 82.2857L42.3616 84.3117L43.7036 85.6623L45.0456 88.3636L47.7296 89.7143L48.4007 91.4026L52.4267 95.1169L53.7687 94.4416L54.1042 93.7662H55.4463L56.4528 94.7792V96.4675L57.1238 97.4805V100.519L57.7948 101.532V104.571V107.948L56.1173 108.286L53.7687 109.299V110.312L54.7752 111.662L53.7687 114.026L52.4267 115.039L53.7687 116.727L55.4463 119.091L56.4528 121.455L58.1303 122.13L60.8143 123.481L62.1564 124.494L63.8339 126.519L65.1759 125.844L66.8534 125.169L69.873 125.844H73.228L75.9121 124.156L79.6026 125.169L81.9511 124.156L84.9707 125.169L88.9967 123.481H91.6808L94.3648 124.494L96.7134 123.481L97.7199 124.156L99.7329 124.494L102.417 122.13L103.423 120.442L104.43 118.753H107.45L109.127 121.117V124.156L110.469 125.169L110.805 128.545L109.127 129.896L108.121 131.584L110.805 136.312L113.153 138H121.205L123.554 137.325L125.902 135.299L128.251 134.623L130.599 133.948V131.247L128.586 130.909L128.922 129.221L129.257 127.195L128.586 126.182V124.494H130.599L131.941 122.805L134.625 122.13L134.961 120.779L137.309 120.104L139.658 117.74L141 116.052V113.688L139.658 113.013L138.651 111.325L138.316 106.26H139.993L141 105.247V102.208L139.993 101.195V95.1169L139.322 94.7792L138.316 93.0909L136.303 92.4156V91.0649L135.632 86.6753H132.277L129.593 85.6623V84.6494L130.935 83.2987L132.277 82.6234L131.941 80.5974H130.599V79.5844L132.948 77.8961V76.5455L131.606 74.8571V72.8312L133.619 71.1429L134.625 69.4545L135.632 68.1039L135.296 63.7143L132.277 63.3766L131.941 61.6883L132.277 58.987V56.6234L129.928 52.9091L127.58 51.8961V51.2208L129.593 50.2078L131.941 48.8571V45.1429L129.593 41.4286L124.896 40.0779L124.56 38.0519V34L127.58 30.961L128.251 27.9221L125.902 24.5455L124.896 21.5065L123.218 19.1429V15.0909L119.863 9.68831H115.837L113.153 13.0649L108.121 13.4026L104.43 17.7922L104.094 21.1688H100.404L99.3974 16.4416L99.0619 13.0649L92.6873 12.3896L89.6678 14.4156L87.9902 14.0779L83.9642 8H82.9577L79.6026 12.0519H73.228L69.873 8.67532L67.1889 11.3766L67.5244 14.4156L64.1694 17.4545Z" fill="#9CB8FC" stroke="#7B9AE3" stroke-width="2" stroke-linejoin="round"/>
</g>
<defs>
<clipPath id="clip0_1564_3">
<rect width="179" height="145" fill="white"/>
</clipPath>
</defs>
</svg>
