<svg width="179" height="145" viewBox="0 0 179 145" fill="none" xmlns="http://www.w3.org/2000/svg">
<g clip-path="url(#clip0_1564_3)">
<rect width="179" height="145" fill="white"/>
<rect width="179" height="145" fill="white"/>
<path d="M46.4138 21.3241L49.6724 19.5235L51.8448 19.8837L56.9138 13.7618L59.0862 12.6814H69.9483L72.1207 13.7618L76.1034 20.6039L80.0862 20.964L82.2586 19.8837L83.3448 18.4432L88.4138 21.3241L90.5862 24.9252L94.2069 24.205L96.0172 20.6039L105.431 14.482H112.672L117.017 11.6011L119.914 8H127.155L129.328 13.0416L130.776 13.7618H134.397V21.3241L141.638 29.2465L148.155 31.0471L155.397 38.2493L156.845 41.8504L154.31 44.7313L155.759 46.5319L153.224 51.5734L154.31 52.2936L155.759 53.0138V56.2548L153.948 60.9363L155.397 65.2576L154.31 67.7784L152.5 70.6593L151.776 74.2604L152.5 78.2216L154.31 79.662L155.397 81.1025L155.034 82.1828V83.9834L160.828 89.385L163 92.626L161.914 94.4266V96.5873L163 98.0277L162.276 99.4681L160.828 101.989L162.276 103.789V105.23L160.103 106.67L156.483 107.751H150.69L148.879 105.23L144.897 104.87L143.448 102.709V100.909L144.534 100.548L143.448 98.0277L142.362 98.7479L141.638 100.548H139.103L136.569 99.4681L135.483 97.3075L132.586 98.0277L131.862 100.548V100.909V102.709H128.966V104.87L130.052 105.95V106.67L124.983 110.992L124.259 113.873L122.448 115.673L118.466 117.114V119.634H117.017L114.483 118.194H110.5L109.776 120.715H107.241L105.069 118.914L103.983 119.634V122.155L106.155 124.676V130.798H102.534V133.319H98.5517L96.7414 130.798L94.931 128.997L92.7586 131.158V135.119H90.9483L90.5862 136.92L87.3276 138L86.6034 132.598L85.1552 131.158V130.798L81.5345 127.917L79.3621 127.197L80.0862 122.875L74.2931 118.194H72.1207L72.4828 114.593L72.1207 111.352L69.2241 109.911L66.3276 110.632L63.431 113.873L56.1897 111.352L51.8448 109.911L47.1379 111.352L41.7069 106.31L36.2759 102.349L33.0172 99.8283H28.6724H26.8621V97.3075L25.7759 96.2271L24.6897 95.1468L26.8621 93.7064L25.7759 92.626V91.1856L27.5862 89.0249L30.4828 90.8255L35.9138 90.4654L37.3621 89.0249L40.9828 85.7839V80.3823L40.2586 79.3019V77.1413H44.6034L46.0517 75.3407L43.1552 73.1801L42.7931 72.4598H46.0517L46.4138 71.3795L44.6034 69.9391L43.1552 68.1385L42.7931 66.6981L43.8793 65.6177L43.5172 64.5374L42.7931 63.4571L40.2586 64.5374L37.3621 64.8975L34.4655 61.6565L32.6552 59.4958V54.8144L31.569 53.7341L29.3966 53.374L28.6724 54.0942L26.8621 53.374L25.4138 51.2133L21.069 50.4931L17.8103 49.4127V46.5319L16.7241 45.0914L16 44.0111L18.5345 40.41L19.9828 40.0499V38.6094H19.2586V33.928L21.069 32.8476L23.2414 31.4072L25.7759 29.6066L27.2241 27.446H29.0345L31.2069 28.5263L33.0172 26.3657L33.3793 24.5651H35.1897L36.2759 22.4044L37.7241 22.7645L38.4483 22.4044V20.964L39.5345 19.5235L42.7931 22.4044L46.4138 21.3241Z" fill="#9CB8FC" stroke="#7B9AE3" stroke-width="2" stroke-linejoin="round"/>
</g>
<defs>
<clipPath id="clip0_1564_3">
<rect width="179" height="145" fill="white"/>
</clipPath>
</defs>
</svg>
