<svg width="179" height="145" viewBox="0 0 179 145" fill="none" xmlns="http://www.w3.org/2000/svg">
<g clip-path="url(#clip0_1564_3)">
<rect width="179" height="145" fill="white"/>
<rect width="179" height="145" fill="white"/>
<path d="M128.558 24.0346L123.676 21.3945H115.789H112.409L106.776 22.9031H101.893L98.1378 20.6401L95.8844 18H94.0067L91.7533 21.3945L88.3733 22.1488L86.12 24.0346L83.8667 19.8858H78.6089L77.1067 18H74.4778V21.7716L75.6044 25.1661L74.4778 27.4291L71.8489 25.9204L73.3511 30.4464L75.6044 33.0865V39.1211L76.3556 42.1384L74.4778 44.7785L71.8489 47.0415L68.4689 47.7958L66.2156 51.9446L69.9711 53.4533L74.4778 57.2249L72.6 60.6194H69.9711L71.0978 63.2595L68.4689 66.2768H63.2111L66.2156 69.6713L63.2111 72.3114L57.2022 71.1799L56.0756 68.5398H51.1933L47.0622 71.1799H44.8089H42.5556L39.9267 73.8201H38.4244H36.1711L31.6644 78.346H26.7822L22.2756 79.4775L23.7778 85.1349L26.7822 87.3979L29.4111 88.1523L31.6644 90.7924L36.1711 89.6609L39.9267 92.6782L44.4333 91.9239L48.5644 87.3979L49.6911 89.6609L44.4333 94.9412L42.5556 97.9585L41.4289 98.4883L34.2933 96.827L28.66 94.9412H20.3978L15.14 93.8097L10.6333 92.6782L5 94.9412L8.00444 99.4671L11.3844 97.3121L15.14 97.9585L20.3978 100.976L24.9044 99.8443L26.4067 101.353L25.28 105.125L20.3978 108.142L16.2667 107.388L13.2622 108.142V110.782L16.6422 111.913L21.1489 110.782L24.9044 113.422H27.5333L31.2889 117.948L36.1711 119.08L39.1756 122.851L43.6822 125.114H49.6911L54.5733 123.228H60.9578L63.5867 120.588H67.7178L73.7267 121.343L75.6044 119.08H77.4822L80.1111 120.588L83.4911 116.817H85.3689V119.08L88.7489 119.834L90.2511 122.097H92.1289L93.2556 123.983L97.0111 125.663L100.391 123.228V119.834H103.02L106.776 116.817L106.024 114.554L111.658 111.536L114.287 113.045L118.042 111.536L119.92 113.045V115.685L122.924 117.948L125.929 117.194L127.056 113.045L130.436 108.896L133.44 109.651L136.82 116.817H138.322L140.2 113.045L142.829 113.799L144.331 116.817H146.584L148.087 118.325L144.331 119.834V123.228L147.336 127L150.34 126.246L153.344 120.588H156.349L159.353 124.737L164.611 126.246V122.474L161.982 119.834V117.948H160.48L164.987 107.765L167.991 107.01L170.244 108.896L172.498 107.765L174 104.747L172.498 101.73L170.996 93.4325V91.9239L167.24 91.1695L162.358 90.0381L161.231 87.0208L157.851 86.2664L154.847 84.0035L156.349 81.7405V79.1003L152.218 78.346L151.467 75.3287H153.72L154.847 72.6886L156.349 67.7855L157.851 67.0311V64.391L153.72 60.9965L151.467 59.1107L147.336 58.3564L146.209 55.7163V50.436L142.829 46.2872L141.702 41.3841L143.58 37.2353L140.2 33.8408H137.947L136.82 35.3495V36.481H131.562L128.558 30.4464V24.0346Z" fill="#9CB8FC"/>
<path d="M21.1489 75.7059V78.346L22.2756 79.4775M22.2756 79.4775L26.7822 78.346H31.6644L36.1711 73.8201H38.4244H39.9267L42.5556 71.1799H44.8089H47.0622L51.1933 68.5398H56.0756L57.2022 71.1799L63.2111 72.3114L66.2156 69.6713L63.2111 66.2768H68.4689L71.0978 63.2595L69.9711 60.6194H72.6L74.4778 57.2249L69.9711 53.4533L66.2156 51.9446L68.4689 47.7958L71.8489 47.0415L74.4778 44.7785L76.3556 42.1384L75.6044 39.1211V33.0865L73.3511 30.4464L71.8489 25.9204L74.4778 27.4291L75.6044 25.1661L74.4778 21.7716V18H77.1067L78.6089 19.8858H83.8667L86.12 24.0346L88.3733 22.1488L91.7533 21.3945L94.0067 18H95.8844L98.1378 20.6401L101.893 22.9031H106.776L112.409 21.3945H115.789H123.676L128.558 24.0346V30.4464L131.562 36.481H136.82V35.3495L137.947 33.8408H140.2L143.58 37.2353L141.702 41.3841L142.829 46.2872L146.209 50.436V55.7163L147.336 58.3564L151.467 59.1107L153.72 60.9965L157.851 64.391V67.0311L156.349 67.7855L154.847 72.6886L153.72 75.3287H151.467L152.218 78.346L156.349 79.1003V81.7405L154.847 84.0035L157.851 86.2664L161.231 87.0208L162.358 90.0381L167.24 91.1696L170.996 91.9239V93.4325L172.498 101.73L174 104.747L172.498 107.765L170.244 108.896L167.991 107.01L164.987 107.765L160.48 117.948H161.982V119.834L164.611 122.474V126.246L159.353 124.737L156.349 120.588H153.344L150.34 126.246L147.336 127L144.331 123.228V119.834L148.087 118.325L146.584 116.817H144.331L142.829 113.799L140.2 113.045L138.322 116.817H136.82L133.44 109.651L130.436 108.896L127.056 113.045L125.929 117.194L122.924 117.948L119.92 115.685V113.045L118.042 111.536L114.287 113.045L111.658 111.536L106.024 114.554L106.776 116.817L103.02 119.834H100.391V123.228L97.0111 125.663L93.2556 123.983L92.1289 122.097H90.2511L88.7489 119.834L85.3689 119.08V116.817H83.4911L80.1111 120.588L77.4822 119.08H75.6044L73.7267 121.343L67.7178 120.588H63.5867L60.9578 123.228H54.5733L49.6911 125.114H43.6822L39.1756 122.851L36.1711 119.08L31.2889 117.948L27.5333 113.422H24.9044L21.1489 110.782L16.6422 111.913L13.2622 110.782V108.142L16.2667 107.388L20.3978 108.142L25.28 105.125L26.4067 101.353L24.9044 99.8443L20.3978 100.976L15.14 97.9585L11.3844 97.3121L8.00444 99.4671L5 94.9412L10.6333 92.6782L15.14 93.8097L20.3978 94.9412H28.66L34.2933 96.827L41.4289 98.4883L42.5556 97.9585L44.4333 94.9412L49.6911 89.6609L48.5644 87.3979L44.4333 91.9239L39.9267 92.6782L36.1711 89.6609L31.6644 90.7924L29.4111 88.1523L26.7822 87.3979L23.7778 85.1349L22.2756 79.4775Z" stroke="#7B9AE3" stroke-width="2" stroke-linejoin="round"/>
</g>
<defs>
<clipPath id="clip0_1564_3">
<rect width="179" height="145" fill="white"/>
</clipPath>
</defs>
</svg>
