<svg width="179" height="145" viewBox="0 0 179 145" fill="none" xmlns="http://www.w3.org/2000/svg">
<g clip-path="url(#clip0_1564_3)">
<rect width="179" height="145" fill="white"/>
<rect width="179" height="145" fill="white"/>
<path d="M101.638 126.448V127.902H99.6957L97.43 129.202L96.7826 131.476L94.8406 130.176H92.2512L90.6329 131.801L89.6618 131.151L87.3961 130.826V129.851L85.1304 129.526L83.8357 130.501L82.2174 131.801L81.2464 130.826L80.599 129.851L79.9517 127.902L76.0676 128.877L76.715 130.501L75.4203 132.126L74.4493 132.776V131.151L72.8309 130.826L71.5362 130.176L71.2126 134.4L70.5652 137H69.5942L68.2995 136.35L67.9758 134.725L66.6812 131.801L63.1208 131.476L62.1498 130.176L60.5314 127.902L59.2367 125.627L58.2657 123.353L56.3237 121.728L57.2947 118.479V115.229L57.942 114.254L56.3237 112.305V110.03L57.2947 109.38L56.3237 108.406V103.207L57.2947 102.557V100.607L56 99.3073L57.2947 98.3325L57.942 95.733V92.8086L57.2947 91.8337V88.5844L58.913 87.2846L59.5604 86.3098V81.4358L58.913 79.8111L57.942 76.5617L57.2947 73.3123L56.3237 69.738L57.2947 68.4383L59.5604 66.1637L60.2077 64.2141L60.8551 62.2645L59.5604 60.6398L60.2077 58.3652L60.8551 57.3904V55.4408L58.913 52.8413V49.267L57.942 48.6171L58.5894 43.7431L60.2077 42.4433L60.8551 40.1688L61.5024 39.194L60.8551 37.2443V35.9446L63.4444 35.2947L62.1498 33.67L61.1787 33.3451L61.5024 31.7204H62.1498L64.0918 31.3955L65.3865 30.4207L66.3575 29.1209L68.2995 26.8463H69.9179H72.8309V25.8715L73.8019 25.2217L74.7729 23.9219V22.9471H76.3913L77.686 21.3224V19.6977L80.2754 18.398L81.2464 17.0982V15.7985L82.5411 15.4736H84.1594L84.4831 13.5239V12.5491H85.7778L87.7198 11.8992V11.2494L89.0145 10.9244L90.3092 11.5743H91.9275L92.8985 10.9244L93.5459 9.94962H95.1642L96.1353 8.97481L97.43 8L98.7246 9.94962L99.6957 11.8992L101.638 12.8741L102.609 14.1738L102.932 15.7985L102.285 17.0982L100.99 18.073L101.638 20.0227L102.932 21.3224L104.227 23.9219L106.816 25.2217L107.464 26.8463L111.348 30.4207L112.643 29.7708L112.966 29.1209H114.261L115.232 30.0957V31.7204L115.879 32.6952V35.6196L116.527 36.5945V39.5189V42.7683L114.908 43.0932L112.643 44.068V45.0428L113.614 46.3426L112.643 48.6171L111.348 49.5919L112.643 51.2166L114.261 53.4912L115.232 55.7657L116.85 56.4156L119.44 57.7154L120.734 58.6902L122.353 60.6398V61.9395L120.411 62.5894L119.763 63.2393L120.411 65.5139L121.382 67.4635L120.734 68.7632L120.087 70.7128L120.411 73.9622L119.116 74.2871L117.821 75.262L118.469 77.2116L119.763 79.1612L121.058 81.4358V84.0353L122.353 85.335V87.2846L123 88.5844L122.353 88.9093V91.1839L123 93.1335L122.676 96.3829L121.705 96.7078L119.44 97.6826L118.145 98.3325L116.203 97.6826L114.585 96.3829H113.614L111.671 96.7078L111.348 98.0076H108.111L107.464 98.3325L106.816 100.607L104.551 102.232L103.903 103.531L103.58 113.929L103.256 115.229L103.903 116.204L103.58 118.479L103.256 119.453L102.932 124.003L101.638 126.448Z" fill="#9CB8FC" stroke="#7B9AE3" stroke-width="2" stroke-linejoin="round"/>
</g>
<defs>
<clipPath id="clip0_1564_3">
<rect width="179" height="145" fill="white"/>
</clipPath>
</defs>
</svg>
