<svg width="179" height="145" viewBox="0 0 179 145" fill="none" xmlns="http://www.w3.org/2000/svg">
<g clip-path="url(#clip0_1564_3)">
<rect width="179" height="145" fill="white"/>
<rect width="179" height="145" fill="white"/>
<path d="M140.225 97.5455L142.609 98.9091L144.652 97.5455L148.057 95.8409L152.143 90.0455L155.207 88.3409L158.953 85.9545L161.677 83.5682L162.358 80.8409L160.315 77.7727V74.3636L158.953 69.25V65.8409L162.358 64.4773L167.125 61.4091L171.552 58.6818L172.573 56.2955L168.487 54.5909L164.061 52.5455L162.358 49.4773L167.125 48.4545L171.552 49.4773L175.297 47.7727L177 45.7273V43L173.935 40.2727L169.509 41.2955L166.444 43L164.061 41.6364H159.634L158.953 40.2727L153.505 39.9318L151.462 36.5227L152.143 35.8409V33.4545L150.44 32.0909L143.971 29.3636L135.798 28L129.329 32.0909L131.712 35.8409L130.691 37.2045L121.497 41.2955H118.432L114.006 33.7955H107.536L102.088 39.9318V43L101.407 44.0227L96.9804 42.3182L93.2348 46.4091H91.1918L88.4677 41.2955H84.0411L83.0196 43H76.8904V47.7727L71.7828 54.5909H70.0802L67.0157 53.9091H63.2701L59.5245 55.9545L56.4599 54.5909L46.9256 53.9091L43.8611 53.5682L40.1155 56.6364L36.3699 61.0682V66.8636H33.9863L32.2838 65.5H30.2407L28.5382 68.5682H26.8356L23.09 71.6364L20.7065 70.2727L15.5988 72.3182L14.9178 73.6818L12.8748 76.0682L10.1507 77.4318L8.78865 75.3864L7.76712 74.7045L6.06458 75.7273L4.36204 77.4318L3 78.7955L5.38356 81.5227L8.78865 82.8864L11.8532 85.6136L13.2153 88V90.3864L13.8963 92.0909L16.2798 93.1136H22.0685H24.7926L27.5166 91.0682L28.5382 92.0909H38.0724L40.7965 90.3864H44.5421L46.5851 92.0909L47.6067 91.0682L50.6712 92.0909L53.0548 91.0682L54.7573 88.3409H57.4814H62.2485L63.9511 91.0682L65.6536 94.4773H70.7613L72.8043 95.1591L74.8474 93.4545L76.8904 95.1591L76.2094 96.5227V98.9091L78.593 97.5455L80.9765 94.4773L84.0411 95.1591H87.4462V98.9091L85.7436 99.9318V101.636L88.4677 104.705L91.8728 106.068V109.136L90.5108 110.841L91.8728 114.591H99.7045L101.407 116.295L104.131 118L108.217 113.227H114.006L119.114 115.273L123.54 114.591L125.924 113.227L126.605 110.841V109.818V108.114L127.626 106.068L126.605 104.705V103.682L128.307 101.636H131.372L132.734 103L134.096 101.636L135.798 99.9318L138.182 97.5455H140.225Z" fill="#9CB8FC" stroke="#7B9AE3" stroke-width="2" stroke-linejoin="round"/>
</g>
<defs>
<clipPath id="clip0_1564_3">
<rect width="179" height="145" fill="white"/>
</clipPath>
</defs>
</svg>
