<svg width="179" height="145" viewBox="0 0 179 145" fill="none" xmlns="http://www.w3.org/2000/svg">
<g clip-path="url(#clip0_1564_3)">
<rect width="179" height="145" fill="white"/>
<rect width="179" height="145" fill="white"/>
<path d="M47.1564 26.3095V22.5238L50.2836 20H52.16L59.9782 27.8869L62.48 27.5714L65.2945 25.6786L67.4836 26.625L67.7964 29.4643L69.6727 32.619L71.2364 31.9881L72.1745 29.7798L79.0545 29.1488L80.6182 30.7262L79.9927 33.25L80.6182 35.4583L83.12 34.8274H85.6218V36.4048L83.7455 38.2976L84.3709 41.1369L88.7491 38.6131L92.1891 39.244L96.88 38.2976L93.7527 42.0833L94.3782 44.6071L98.4436 44.2917L100.32 47.4464L104.698 48.0774L108.138 52.494L110.015 55.6488L107.2 61.3274L112.204 66.375L114.705 65.744L124.4 69.8452L130.029 67.3214L135.345 65.744L139.411 60.381L138.473 57.2262L140.975 56.2798L141.6 58.4881L143.789 60.6964L146.604 61.9583L148.793 61.6429L150.356 57.8571L155.047 55.9643L163.491 56.5952L170.684 56.9107L175.062 57.5417L176 60.381L175.062 62.2738L170.996 60.6964L168.807 61.6429L168.495 64.4821L166.618 65.744L165.68 71.1071L165.993 74.5774L167.869 75.8393L168.182 78.0476L162.865 79.9405L160.676 82.1488H158.175L155.985 80.8869L152.858 80.256L149.731 83.4107L144.102 84.9881L142.538 83.4107L140.349 80.8869L135.345 77.4167L130.029 77.1012L125.025 80.8869L123.775 83.0952L122.836 88.4583H119.396L118.458 90.6667L115.331 91.6131L113.142 94.4524V98.2381L111.578 98.5536L108.764 96.6607L106.262 96.3452L104.073 97.9226L97.8182 97.6071L95.9418 99.5L86.8727 103.601L84.9964 108.018L83.12 114.643H80.3055L75.9273 118.429L73.7382 122.214L69.36 123.792L67.4836 126H64.9818L63.7309 123.476H62.48L59.9782 125.685H56.5382L53.4109 123.792L50.9091 120.637H49.6582L44.9673 118.858L42.7782 116.536L42.1527 114.958L44.9673 114.012L47.1564 112.119L48.4073 108.964L47.7818 104.548L48.0945 101.077L50.9091 97.6071L51.2218 93.8214L49.3455 85.619L43.0909 79.625L39.3382 78.0476L36.2109 79.625L32.7709 79.3095L24.64 72.0536L20.5745 69.8452L14.6327 68.8988L11.8182 71.4226L7.75273 72.6845L6.18909 72.0536L4 69.8452L4.31273 65.1131L11.5055 59.119L15.5709 57.2262L19.3236 52.1786L26.2036 49.6548L28.7055 47.4464L30.2691 45.2381L32.7709 46.1845L36.2109 44.9226L42.7782 39.5595H45.9055L47.1564 38.2976H50.9091L52.7855 35.1429L53.0982 33.25L52.16 32.619L50.5964 33.5655L48.72 32.9345L47.1564 30.0952V26.3095Z" fill="#9CB8FC" stroke="#7B9AE3" stroke-width="2" stroke-linejoin="round"/>
</g>
<defs>
<clipPath id="clip0_1564_3">
<rect width="179" height="145" fill="white"/>
</clipPath>
</defs>
</svg>
