<svg width="179" height="145" viewBox="0 0 179 145" fill="none" xmlns="http://www.w3.org/2000/svg">
<g clip-path="url(#clip0_1564_3)">
<rect width="179" height="145" fill="white"/>
<rect width="179" height="145" fill="white"/>
<path d="M42.2239 6.91724L36.3134 7.57471L38.6119 10.8621L37.9552 13.8207L35 16.7793V20.7241L35.3284 22.6966L39.9254 24.0115L42.2239 27.6276V31.2437L39.9254 32.5586L37.9552 33.5448V34.2023L40.2537 35.1885L42.5522 38.8046V41.1057L42.2239 43.7356L42.5522 45.3793L45.5075 45.708L45.8358 49.9816L44.8507 51.2966L43.8657 52.9402L41.8955 54.5839V56.5563L43.209 58.2V59.5149L40.9104 61.1586V62.1448H42.2239L42.5522 64.1172L41.2388 64.7747L39.9254 66.0897V67.0759L42.5522 68.0621H45.8358L46.4925 72.3356V73.6506L48.4627 74.308L49.4478 75.9517L50.1045 76.2805V82.1977L51.0896 83.1839V86.1425L50.1045 87.1287H48.4627L48.791 92.0598L49.7761 93.7034L51.0896 94.3609V96.6621L49.7761 98.3057L47.4776 100.607L45.1791 101.264L44.8507 102.579L42.2239 103.237L40.9104 104.88H38.9403V106.524L39.597 107.51L39.2687 109.483L38.9403 111.126L40.9104 111.455V114.085H41.2388L42.8806 115.071L42.2239 116.386L41.2388 118.03L41.5672 119.674L43.5373 121.317L44.194 122.303L42.8806 124.276L43.5373 125.262L44.5224 126.577L44.194 128.549L41.8955 129.864L41.5672 132.166L42.8806 132.823L44.194 135.124L46.1642 136.439L49.4478 140.055L50.1045 143.014L52.7313 144H54.7015L56.3433 143.014L58.3134 140.713V138.74H59.2985H61.597L64.2239 137.425L67.8358 134.467L68.1642 136.439L69.4776 137.425L73.0896 137.097L75.0597 138.74L76.7015 139.726L77.6866 136.439L79 133.809H85.5672L87.209 132.166L90.1642 134.467H91.806L93.1194 133.152L98.0448 133.48L98.7015 132.166V130.193L100.672 127.234L103.627 124.605L104.94 123.29L106.91 120.331L107.896 118.687L105.269 117.044L106.91 115.729L108.552 114.743L107.896 110.469L108.552 108.168V106.524L108.881 105.538L109.209 101.922L114.134 98.9632L117.09 98.6345L119.388 99.9494L125.627 101.593H127.597L128.91 100.278L130.224 97.977L132.194 96.3333L133.836 94.0322V92.0598L135.806 91.0736V90.0874L134.493 88.4437V86.4713L136.463 84.1701L138.761 83.1839L139.746 82.1977V80.8828L139.09 79.8965V78.2529L140.075 77.2667H142.701L143.358 75.623L144.672 72.9931L145 70.6919L143.03 68.3908V67.0759L139.418 64.7747L138.761 62.8023L140.075 61.4874H141.388V59.5149H138.761L136.134 57.8713V56.2276L134.164 54.5839L132.522 55.5701L131.209 57.8713L128.582 58.5287L127.269 59.5149L126.284 61.4874H123.657H121.358H120.045L118.075 62.8023L116.104 61.4874H114.134L113.149 62.8023L111.507 61.4874V59.5149L108.224 56.2276V54.5839H109.209V52.9402L108.224 51.2966L107.239 49.6529L105.269 48.0092L104.612 46.0368H101.985L99.3582 48.0092L95.7463 48.3379L94.7612 47.3517H91.1493L90.4925 43.7356L91.806 41.7632L91.4776 40.4483L87.209 37.1609V32.8874L85.2388 30.9149V26.6414V22.3678L83.597 19.7379L82.6119 18.7517L83.597 15.1356H81.6269L80.3134 13.8207H77.0299L76.0448 10.8621L75.3881 6.91724L69.806 2.31494H60.2836L57 4.61609H53.0597L51.7463 3.95862V1L48.1343 1.65747L46.8209 3.30115L44.194 4.61609L42.2239 6.91724Z" fill="#9CB8FC" stroke="#7B9AE3" stroke-width="2" stroke-linejoin="round"/>
</g>
<defs>
<clipPath id="clip0_1564_3">
<rect width="179" height="145" fill="white"/>
</clipPath>
</defs>
</svg>
