<svg width="179" height="145" viewBox="0 0 179 145" fill="none" xmlns="http://www.w3.org/2000/svg">
<g clip-path="url(#clip0_1564_3)">
<rect width="179" height="145" fill="white"/>
<rect width="179" height="145" fill="white"/>
<path d="M47.6175 18.6035L46.2982 15.2868H50.2561L52.8947 12.6334L51.2456 7.32668L52.8947 6H56.8526L58.5018 7.99002V9.31671L64.7684 11.3067L67.0772 9.98005L71.3649 10.6434L74.3333 14.2918L79.9404 15.2868L82.5789 17.6085H85.8772L89.8351 13.6284H92.4737L95.1123 18.2718L97.7509 20.9252L99.4 21.5885L103.358 19.2668L105.667 21.5885L108.965 20.9252L111.274 26.8953L117.54 28.5536L118.86 29.8803L121.498 29.217L126.116 25.2369H131.063V26.2319L129.084 30.8753V33.197L133.702 39.1671L135.021 40.4938L133.702 46.1322V48.4539L131.063 52.4339L128.095 55.419L126.775 59.0673L124.137 60.0623L120.839 62.384H118.2L118.86 66.3641L122.488 69.3491L130.074 71.0075L133.702 69.3491L135.021 70.0125V72.0025L133.042 75.6509H130.074L124.796 74.6559L122.488 77.6409L120.839 81.6209V84.9377L121.498 88.9177L128.095 90.9077L129.414 91.5711V95.2195L133.042 100.526V102.848L131.063 105.501V106.828L135.681 106.165L137 106.828L136.67 108.818L133.042 111.803L133.702 114.788L132.053 116.115V120.426L130.074 123.743L132.053 128.718V131.372L130.733 135.02L123.147 136.015L117.211 138.005L115.232 137.673L111.274 136.015L105.667 139L103.358 138.337L100.719 136.015L99.7298 131.372L99.0702 128.055H90.8246L89.5053 126.065L89.8351 123.411L87.8561 121.421L83.8982 121.753L80.6 119.1V116.778L78.9509 114.125L76.3123 114.788L71.6947 114.125V111.471L73.6737 110.145V109.15L71.6947 106.165L69.7158 104.175H67.0772L66.4175 100.858L64.7684 100.195L64.1088 94.8878L62.4597 92.5661V90.5761L64.7684 88.2544L63.1193 85.9327V81.9526L60.8105 79.2992V76.9776L57.5123 75.6509H52.5649L51.2456 73.9925L52.5649 71.6708L53.2246 70.3441L52.2351 69.0175V67.0274L53.2246 65.3691L51.2456 62.384L45.9684 57.409V55.7506L46.2982 54.7556L45.3088 53.4289L43.6596 52.1022L43 48.4539L43.6596 45.1372L45.3088 42.4838L46.2982 40.1621L44.9789 36.182L46.6281 31.8703V28.8853L45.3088 28.2219L44.3193 27.5586L46.6281 22.9152L45.3088 21.2569L47.6175 18.6035Z" fill="#9CB8FC" stroke="#7B9AE3" stroke-width="2" stroke-linejoin="round"/>
</g>
<defs>
<clipPath id="clip0_1564_3">
<rect width="179" height="145" fill="white"/>
</clipPath>
</defs>
</svg>
