<svg width="179" height="145" viewBox="0 0 179 145" fill="none" xmlns="http://www.w3.org/2000/svg">
<g clip-path="url(#clip0_1564_3)">
<rect width="179" height="145" fill="white"/>
<rect width="179" height="145" fill="white"/>
<path d="M32.1622 119.294V114.499L32.8997 111.179L31.7935 108.965L28.8437 105.646L27 103.432V101.219L29.9499 94.5792L29.5811 88.6772L28.4749 85.7262L27.7375 82.0375V76.8732L28.4749 74.6599L35.1121 68.0202L41.0118 61.7493L46.9115 55.1095L52.4425 49.2075L59.8171 42.5677L63.8732 37.7723L68.6667 35.1902L72.354 32.6081L75.3038 28.9193L78.2537 24.4928L80.8348 24.1239L85.997 23.755L91.8968 23.0173L94.4779 18.5908L96.6903 16.3775L97.4277 14.902V10.4755L98.5339 9L100.746 10.1066L102.59 12.3199L104.802 13.7954L106.646 11.5821L108.121 10.8444L111.071 12.3199V15.2709H112.546L114.758 17.4841L113.652 18.9597L112.546 20.0663V23.755L113.652 25.5994L115.496 24.4928L120.289 25.5994V27.0749L122.87 28.9193L124.714 32.9769L126.558 31.1326H129.507L134.67 31.8703L137.619 32.9769H137.988L138.357 34.4524L137.619 35.1902L138.357 36.2968L139.832 37.7723L140.201 37.0346L142.782 36.2968L143.888 37.0346L144.257 38.5101H143.519V40.3545L141.676 41.0922V42.1988L142.782 43.3055V44.4121L141.676 45.5187L141.307 47.3631L142.413 48.8386V50.683H143.519L144.625 51.7896L145.363 53.634H146.838L148.313 54.3718L149.05 53.634H151.263L152 56.2161V58.0605L151.263 61.0115L150.525 62.8559L149.05 65.438L146.469 66.1758L144.257 67.6513H139.832H137.619L135.776 69.8646L136.145 70.9712L136.513 75.7666H135.038L131.72 76.5043L130.245 76.8732V80.1931L129.139 81.2997H127.664L126.926 83.1441H124.345H123.239L121.027 83.8818V84.9885L119.183 86.464L118.077 87.5706V89.415H116.97L114.758 87.9395H112.914L112.546 86.8328L110.333 86.464L105.54 86.0951L104.802 86.8328L104.065 88.3084L105.171 90.1527L104.065 91.6282L103.327 92.366L102.221 93.8415L102.959 94.9481V97.1614L102.221 99.3746L101.115 100.481L100.009 103.063L101.115 105.646L103.327 106.014L104.065 107.49L103.327 110.072H98.5339L97.4277 110.81H95.2153L94.4779 111.179L93.003 111.548L88.2094 110.81H86.3658L84.5221 112.285L83.0472 111.548L81.941 110.81L80.4661 112.285H74.5664L73.4602 111.179H71.2478L70.1416 112.285L69.0354 114.13L68.6667 117.081H66.823L65.3481 118.187L63.8732 118.925L63.5044 121.507L62.3982 122.983V124.458L61.292 125.565V128.147L62.3982 129.622V132.205L60.9233 133.68V137H59.4484L58.3422 136.262H55.0236L53.9174 134.418L50.9676 132.942H48.0177L43.9617 131.467V129.622L43.2242 126.671H40.2743L37.3245 125.934L35.1121 122.983L33.2684 121.507L32.1622 119.294Z" fill="#9CB8FC" stroke="#7B9AE3" stroke-width="2" stroke-linejoin="round"/>
</g>
<defs>
<clipPath id="clip0_1564_3">
<rect width="179" height="145" fill="white"/>
</clipPath>
</defs>
</svg>
