<svg width="179" height="145" viewBox="0 0 179 145" fill="none" xmlns="http://www.w3.org/2000/svg">
<g clip-path="url(#clip0_1564_3)">
<rect width="179" height="145" fill="white"/>
<rect width="179" height="145" fill="white"/>
<path d="M63.3919 125.438L62.0865 127.625V136.375V136.812L64.6973 136.375L69.0486 138.562L71.2243 139L74.7054 137.25L79.4919 132L80.7973 128.938L79.0568 125.438L80.7973 124.562L85.1486 122.812L83.8432 126.312L82.5378 131.125V137.25L85.1486 138.125L88.1946 134.188H91.6757L92.9811 135.5L97.7676 136.812L102.119 135.5L104.295 132.875V127.625L102.119 124.562L103.424 122.375L106.035 123.25V126.312L107.341 127.625L112.562 126.312H118.219L123.441 121.062H126.051H127.792L130.838 118H133.449H136.059L140.846 114.938H146.503L147.808 118L154.77 119.312L158.251 116.25L154.77 112.312H160.862L163.908 108.812L162.603 105.75H165.649L167.824 101.812L162.603 97.4375L158.251 95.6875L160.862 90.875L164.778 90L167.824 87.375L170 84.3125L169.13 80.8125V73.8125L166.519 70.75L164.778 65.5L167.824 67.25L169.13 64.625L167.824 60.6875V56.3125L163.908 53.6875L162.603 51.0625L160.862 46.25L162.603 44.0625H166.519L164.778 40.5625V32.6875L165.649 30.0625L162.603 27V23.0625L163.908 19.5625L160.862 17.8125H158.251L155.205 20.875L153.03 23.0625L151.289 24.8125L149.549 23.0625H145.632L143.457 25.6875V27L144.762 28.75L143.457 31.375V33.5625V34.875L142.586 37.9375L139.541 39.6875L133.884 40.5625L127.357 37.9375H119.959L114.738 44.0625L111.257 41.875L109.081 39.6875H99.073L97.3324 34.875L99.073 32.6875V28.75L94.7216 27L91.2405 23.0625V20.875L93.4162 19.5625V14.75H89.0649L85.1486 13.875L82.1027 17.8125L79.0568 19.5625V16.5L79.927 14.75L77.3162 12.5625L74.7054 14.75L72.0946 13.875H65.5676L63.3919 9.5L61.2162 6H55.1243H51.6432L49.4676 9.5L46.4216 10.8125L42.5054 9.5L41.2 10.8125L38.5892 8.625H33.8027L30.3216 10.8125H18.1378L16.8324 9.5L13.3514 12.125L15.0919 15.625L12.0459 16.5L9 17.375V18.6875L9.87027 20.875V24.8125L13.3514 27L14.2216 34L15.0919 37.9375L18.1378 41V43.1875L19.8784 44.0625V48.4375V53.25H22.0541L22.9243 55.4375H26.8405L28.5811 54.125L31.1919 53.25L33.8027 55.4375L36.4135 56.3125L38.5892 53.25L40.3297 56.3125L42.5054 58.9375L45.5513 62.875L44.2459 65.9375V66.8125V72.0625V76.875L46.4216 83.4375H51.6432L53.8189 84.75H55.9946V83.4375H60.3459L62.0865 84.75L60.3459 87.8125L58.6054 90L60.3459 92.1875L63.3919 93.5H66.873V95.6875L68.6135 97.875V101.375L66.873 104V106.188L65.5676 108.375H61.2162L55.9946 109.25L54.6892 111L57.7351 116.25L63.3919 121.062V125.438Z" fill="#9CB8FC" stroke="#7B9AE3" stroke-width="2" stroke-linejoin="round"/>
</g>
<defs>
<clipPath id="clip0_1564_3">
<rect width="179" height="145" fill="white"/>
</clipPath>
</defs>
</svg>
