<svg width="179" height="145" viewBox="0 0 179 145" fill="none" xmlns="http://www.w3.org/2000/svg">
<g clip-path="url(#clip0_1564_3)">
<rect width="179" height="145" fill="white"/>
<rect width="179" height="145" fill="white"/>
<path d="M66.8433 12.2589L64.6269 14.2021L65.3657 15.1738L66.597 16.3883H69.306L70.0448 15.1738L72.5075 15.4167L73.7388 16.3883V18.3316L75.2164 19.789L73.7388 22.9468L75.2164 24.8901L74.2313 27.0762V31.2057L72.5075 33.3918L72.0149 35.578V37.2784L73.4925 38.7358L75.9552 39.2216L78.6642 42.8652L79.6493 45.5372L81.3731 46.0231L83.3433 44.0798L84.8209 44.3227L85.806 45.0514V48.695L84.3284 49.6667L85.0672 53.3103L83.5896 54.7677V55.7394H85.806L86.5448 57.1968L85.3134 61.0833L86.2985 63.0266L88.0224 63.7553L90.2388 65.4557L91.9627 65.9415H94.6716L96.6418 68.6135V76.8723L97.1343 78.5727L96.6418 80.0301L95.1642 81.0018L95.903 82.7021L99.3507 84.6454L101.075 87.3174L100.582 88.289H95.4104L94.6716 89.2606H92.209V87.0745L91.9627 86.3457L90.2388 84.8883L89.0075 84.6454L87.5299 86.3457L87.2836 87.8032L85.5597 88.289L84.3284 86.8316L82.3582 86.5887L81.6194 83.4309H80.3881L78.9104 85.3741H76.694L74.9701 87.5603H73.4925L73.2463 81.0018H71.7687L69.5522 81.9734L64.8731 84.8883L64.3806 88.289L64.8731 89.7465V92.9043L67.5821 96.305V97.7624L65.3657 99.7057L64.8731 101.649L65.3657 103.835V105.293L62.6567 106.021L60.4403 105.778L57.9776 107.965V111.608L55.5149 115.009H52.806L52.0672 116.709L50.5896 118.167H49.6045V120.596L51.0821 122.296V124.482L49.6045 126.911L46.6493 127.397L44.1866 126.426L40.4925 127.397L40 128.855L41.9701 130.555L43.694 134.684L46.403 137.356L50.5896 138.328L52.806 139.785L57.2388 140.271L58.4701 139.785L58.2239 136.385L59.7015 134.684H60.9328V137.113L62.4104 138.328L64.8731 137.113L68.3209 133.956L73.2463 132.012L79.403 131.041L86.0522 135.17L87.0373 136.871V139.3V141H88.2687L89.9925 138.085L90.4851 133.47L89.2537 130.555L86.0522 130.312L85.806 128.855L86.2985 126.911V125.697L85.3134 124.725L85.0672 119.138L85.806 116.466H87.2836L87.7761 118.167L88.2687 120.839L90.2388 122.782H90.9776L93.4403 121.082L92.9478 120.11L92.4552 117.681L94.6716 117.438L95.4104 115.495L98.1194 112.823H99.3507L101.075 113.794H102.06V111.365L103.291 110.879L104.276 112.337L105.261 112.094L107.231 109.179L111.91 104.078V100.92L110.433 98.977L110.187 97.2766L106.739 95.3333L102.552 91.9326L102.06 89.2606L103.291 87.3174L105.261 86.3457L106.739 86.5887L107.231 88.7748L109.201 90.4752V92.9043L111.91 94.8475L112.403 97.2766L114.866 98.977L117.328 97.7624L120.284 93.633V90.4752L123.239 87.0745V81.4876L124.224 79.5443H127.918L132.351 77.844L135.306 76.8723V71.7713L136.045 70.5567V68.1277L132.843 65.4557L131.119 62.5408L131.858 61.5691L134.813 61.0833H137.276L138.015 59.8688V58.6543L139 57.1968V55.2535L138.015 54.039V52.8245H136.045L134.321 52.0957L133.336 50.8812L134.321 49.6667L135.306 47.9663L134.321 47.2376H131.858V47.9663H130.627L129.396 47.2376H126.44L125.209 43.594V40.922V38.0071V37.5213L125.948 35.8209L124.224 33.6348L122.993 32.1773L122.007 30.477L120.776 32.1773L119.299 31.6915L117.821 30.477L116.343 30.9628L115.358 31.6915H113.142L112.649 30.477H111.418V27.805V25.3759L110.433 24.8901V23.6755L108.709 21.9752L108.216 19.789L107.724 15.9025L105.754 14.6879V12.5018L105.261 11.2872V10.5585L106.985 10.0727L108.709 9.58688L107.724 7.64362H105.754H101.567L99.8433 6.91489L99.3507 5.70035V4L97.8731 4.48582H96.1493V4.97163L94.6716 5.70035L92.9478 4.48582L91.2239 4.97163H89.7463L88.5149 5.70035L89.5 7.64362V9.10106L87.7761 10.0727H84.0821L82.3582 9.10106L80.8806 8.61525L78.9104 10.0727L76.4478 9.58688H74.2313L72.0149 7.64362L69.306 7.1578V10.0727L66.8433 12.2589Z" fill="#9CB8FC" stroke="#7B9AE3" stroke-width="2" stroke-linejoin="round"/>
</g>
<defs>
<clipPath id="clip0_1564_3">
<rect width="179" height="145" fill="white"/>
</clipPath>
</defs>
</svg>
