<svg width="179" height="145" viewBox="0 0 179 145" fill="none" xmlns="http://www.w3.org/2000/svg">
<g clip-path="url(#clip0_1564_3)">
<rect width="179" height="145" fill="white"/>
<rect width="179" height="145" fill="white"/>
<path d="M11.9231 35.0359L10 33.1048L10.7692 31.1737L12.3077 28.0838L12.6923 25.3802L16.9231 26.1527L19.2308 24.6078L21.5385 22.6767L23.0769 21.1317L24.6154 22.6767H26.1538L27.6923 21.1317L30 23.8353H32.3077L34.2308 24.6078L35 23.8353H37.3077L39.6154 24.6078L41.5385 22.6767L45.3846 21.1317L48.8462 19.2006L49.6154 17.6557L51.1538 16.8832L54.2308 13.4072L55 11.6448H60.3846L61.1538 12.2485L63.8462 9.93114L65.7692 10.3174L68.0769 12.2485L69.6154 13.4072L74.6154 13.021L76.5385 12.2485H78.4615L84.6154 14.9521L86.9231 13.4072L90.3846 13.021L91.5385 10.3174H95L99.6154 13.7934L101.923 12.2485L104.615 9.15868L108.462 8L109.615 8.77246L110 14.9521L111.538 17.2695L114.231 19.2006L115.769 21.1317V22.2904L115 23.4491V25.3802L118.462 27.6976L118.846 30.015L122.308 31.9461L121.923 34.2635L120.385 35.4222L119.615 36.5808L120.385 37.7395H123.846L124.615 36.5808H126.154V37.7395L130.769 37.3533L131.154 36.1946L132.308 35.4222L134.231 34.6497L136.154 32.7186L137.692 33.491L138.846 34.2635L141.154 34.6497V39.6707H141.923V41.2156L140.385 41.6018L137.692 45.4641L138.462 46.6228L139.615 48.1677V51.2575L143.077 52.4162L147.692 53.1886L149.231 55.506L151.154 56.2784L151.923 55.506L154.231 55.8922L155.385 57.0509V62.0719L157.308 64.3892L160.385 67.8653L163.462 67.479L166.154 66.3204L166.923 67.479L167.308 68.6377L166.154 69.7964L166.538 71.3413L168.077 73.2725L170 74.8174L169.615 75.9761H166.154L166.538 76.7485L169.615 79.0659L168.077 80.997H163.462V83.3144L164.231 84.4731V90.2665L160.385 93.7425L158.846 95.2874L153.077 95.6737L150 93.7425L148.077 96.0599V97.6048L149.231 98.7635L146.923 100.308L148.077 101.467L149.231 102.626V105.329H144.615L138.846 104.943L135.385 108.033L130.769 110.737L126.154 111.895L123.462 113.44L120.769 118.075L117.692 123.482L115.769 125.799V127.344L117.692 128.889V133.138L116.923 137L113.077 134.683L108.462 131.979L103.846 131.207L100 131.979V128.889L96.5385 125.799L91.5385 126.958L88.0769 128.889L85.3846 127.344H80.3846L79.6154 125.799L73.4615 125.413L71.1538 121.551L71.9231 120.778V118.075L70 116.53L62.6923 113.44L63.8462 111.895L60.3846 107.26L53.8462 98.3772L51.1538 93.7425L43.4615 90.2665L41.5385 86.4042L43.4615 81.3832L41.5385 77.1347L37.3077 73.2725L34.6154 72.1138L33.8462 66.7066L29.6154 65.9341L26.5385 62.8443L24.6154 60.1407L26.1538 58.2096L27.3077 55.506V53.1886L22.3077 48.1677L18.4615 46.2365V41.6018L17.3077 38.8982L13.0769 36.9671L11.9231 35.0359Z" fill="#9CB8FC" stroke="#7B9AE3" stroke-width="2" stroke-linejoin="round"/>
</g>
<defs>
<clipPath id="clip0_1564_3">
<rect width="179" height="145" fill="white"/>
</clipPath>
</defs>
</svg>
