<svg width="179" height="145" viewBox="0 0 179 145" fill="none" xmlns="http://www.w3.org/2000/svg">
<g clip-path="url(#clip0_1564_3)">
<rect width="179" height="145" fill="white"/>
<rect width="179" height="145" fill="white"/>
<path d="M62.3801 12.5272V7.91977H66.6293L68.5607 6H72.4237L75.514 7.91977L82.081 9.07163L87.4891 12.5272L94.8287 13.6791L98.6916 17.1347H107.576L116.075 21.7421H122.642L124.573 20.9742L129.595 22.51L131.14 28.6533L134.231 30.5731L135.389 34.7966H141.184L143.115 32.8768L146.592 32.4928L148.91 35.1805H151.227L152 37.8682L150.455 41.7077L147.751 43.2436L146.978 45.5473V48.235H145.819L143.502 45.5473L141.956 46.6991L142.729 48.6189V51.6905L139.639 55.5301V57.0659L140.798 58.6017V60.1375L138.093 62.0573V63.5931L136.162 65.1289L135.389 67.8166V69.3524L133.844 70.5043L133.072 72.4241L131.14 73.192L129.981 73.9599H128.436L128.822 75.8797L129.595 76.6476V80.1032V81.639L130.368 82.0229V84.3267L129.595 86.2464V91.2378L129.981 92.0057L130.368 93.1576L131.14 93.9255V95.4613V96.6132L129.595 97.3811L129.209 99.3009L128.436 101.605L127.664 102.756L126.505 105.444H123.414L121.869 106.596L120.71 107.748H118.779L118.006 108.9L116.847 109.668H114.916L113.371 108.9L111.826 109.284V110.052L109.508 110.819H107.963V111.971L107.576 114.275H105.645L104.1 114.659V116.195L102.941 117.731L99.8505 119.266V121.186L98.3053 123.106H96.3738V124.258L95.215 125.794L94.0561 126.562V127.713H90.5794H88.648L86.3302 130.401L85.1713 131.937L83.6262 133.089L81.3084 133.473L79.7632 132.705V130.401V129.249L80.5358 126.946L78.9907 126.562L77.8318 127.33L76.2866 126.562L74.3551 125.026L73.5826 125.794H68.947L68.1745 126.562L66.243 127.33L65.4704 128.481H63.1526V130.401L61.2212 131.169H54.6542L53.8816 131.937H48.8598L48.0872 131.169L46.5421 130.785L45.7695 130.401L45.3832 131.553L43.838 132.705V133.473L45.3832 134.241L44.9969 136.16L43.4517 138.08L42.2928 139.232H39.9751L39.2025 140L37.6573 139.232H36.1122L35.3396 137.312L34.1807 136.16H33.0218V134.241L31.8629 132.705L32.2492 130.785L33.4081 129.633V128.481L32.2492 127.33V126.178L34.1807 125.41V123.49H34.9533L34.567 121.954L33.4081 121.186L30.704 121.954L30.3178 122.722L28.7726 121.186L28 120.034L28.7726 119.266L28.3863 117.731H31.0903L34.1807 115.811V113.507L33.0218 111.587L31.0903 110.052V108.132L33.0218 106.98V105.06L34.1807 102.372L36.1122 103.14H40.3614V101.605V99.3009H44.2243V94.6934H50.7913H53.109H56.1994L60.8349 97.765H64.6978L66.6293 95.4613V88.5501L68.5607 87.3983L70.1059 85.4785H72.4237L73.9688 83.1748V78.9513H75.514V75.4957H78.6044V73.9599L77.8318 73.192V70.1203L76.6729 68.5845H73.1963L72.4237 67.8166L73.1963 64.361L76.6729 63.2092L77.8318 61.2894L75.514 57.4499L71.6511 56.298L70.1059 52.8424L68.5607 49.7708L67.7882 46.6991H64.6978H57.3583L56.1994 39.0201V37.8682V35.5645L58.1308 32.4928V29.4212L57.3583 28.2693L55.0405 25.5817V21.7421L58.1308 18.2865L60.0623 15.2149L62.3801 12.5272Z" fill="#9CB8FC" stroke="#7B9AE3" stroke-width="2" stroke-linejoin="round"/>
</g>
<defs>
<clipPath id="clip0_1564_3">
<rect width="179" height="145" fill="white"/>
</clipPath>
</defs>
</svg>
