<svg width="179" height="145" viewBox="0 0 179 145" fill="none" xmlns="http://www.w3.org/2000/svg">
<g clip-path="url(#clip0_1564_3)">
<rect width="179" height="145" fill="white"/>
<rect width="179" height="145" fill="white"/>
<path d="M46.7222 118.026H42.1852V116.908L43.1574 115.282L43.4815 111.704L42.8333 111.053L41.537 110.078V108.451L42.1852 107.15L44.4537 106.825L45.4259 105.524L45.75 104.549L44.7778 102.754L43.1574 102.597L42.8333 100.971L43.8056 100.646L44.4537 98.3689L44.7778 96.7427L46.3981 95.4417V91.8641L45.75 90.8884V86.9854L42.5093 87.3107L41.537 86.335L40.8889 85.034L38.9444 84.7087L38.2963 83.733L37 83.0825V78.8544L37.9722 78.5291L38.9444 76.5777L39.9167 74.9515L40.8889 73.3252V71.0485L40.2407 69.7476L38.9444 68.4466L39.5926 65.8447L40.8889 64.5437L42.5093 63.568L42.8333 62.5922L43.1574 60.6408L43.8056 59.3398L43.4815 54.7864L44.1296 53.1602V52.1845L43.1574 51.534L42.1852 50.233L43.4815 49.5825L42.8333 47.6311L41.8611 46.3301L39.9167 45.3544V39.5L40.5648 38.199L41.8611 37.2233L42.1852 35.5971L43.4815 34.2961H44.7778L46.3981 32.9951L48.9907 31.6942L50.287 30.7184V26.4903H51.2593L52.5556 25.1893L53.8519 24.5388V23.2379L51.5833 21.6117L50.287 19.9854L48.0185 18.3592L47.3704 17.0583L48.0185 15.7573L49.3148 14.4563V10.8786L50.6111 10.5534V7.30097H53.8519L55.1481 9.57767H56.7685L62.9259 6L66.4907 6.32524L68.1111 8.2767L70.7037 13.4806L73.6204 14.4563L76.537 17.7087L76.8611 25.1893L81.3981 32.0194L85.287 34.9466L89.1759 38.8495L90.4722 43.0777L85.6111 44.7039L82.6944 45.6796L79.4537 46.9806V49.2573L81.7222 52.835L84.6389 55.7621L83.3426 61.6165V64.8689L85.9352 65.1942L86.9074 66.1699L84.6389 71.699L87.5556 73.3252L90.4722 71.699L94.6852 72.6748L101.167 73.3252L102.787 75.6019H107.648L110.241 74.301L114.778 73.3252L118.991 74.301V79.8301L121.259 82.432L125.796 81.1311L128.065 83.0825L126.444 87.3107L129.037 91.2136L130.657 96.7427L132.926 99.3447L132.278 104.874L130.981 106.5L132.926 113.655L135.194 116.583L139.083 117.883V120.16L142 124.388L139.083 126.015L135.843 126.99L132.926 124.388L131.954 125.689V126.99L131.306 127.316L130.009 126.99L129.037 128.942H127.417L127.093 130.568L125.472 132.519L123.528 131.544H121.907L120.611 133.495L118.343 135.121L116.398 136.422L114.778 137.398L112.833 137.073L111.861 136.422L110.565 135.772L108.944 137.398L107.324 138.049L106.352 138.699L106.028 139.675L102.139 140V139.024H100.843L100.194 140H97.2778L96.6296 139.024L97.2778 138.049L98.5741 137.073L98.8981 135.121L95.9815 133.495L95.6574 131.544L92.7407 129.592V127.966L93.3889 126.99V126.015L92.0926 124.388L89.8241 122.762L88.5278 120.811L88.2037 115.607L87.2315 114.956L83.9907 115.932L81.7222 118.534L79.7778 119.835L75.8889 116.908H72.9722L72 119.184L69.0833 119.51L67.1389 120.811L61.9537 118.534H60.3333L58.713 119.184L54.5 119.51L53.2037 118.534L51.2593 116.908L49.6389 116.583L47.3704 118.534L46.7222 118.026Z" fill="#9CB8FC"/>
<path d="M42.1852 118.026L41.537 119.51M42.1852 118.026H46.7222L47.3704 118.534L49.6389 116.583L51.2593 116.908L53.2037 118.534L54.5 119.51L58.713 119.184L60.3333 118.534H61.9537L67.1389 120.811L69.0833 119.51L72 119.184L72.9722 116.908H75.8889L79.7778 119.835L81.7222 118.534L83.9907 115.932L87.2315 114.956L88.2037 115.607L88.5278 120.811L89.8241 122.762L92.0926 124.388L93.3889 126.015V126.99L92.7407 127.966V129.592L95.6574 131.544L95.9815 133.495L98.8981 135.121L98.5741 137.073L97.2778 138.049L96.6296 139.024L97.2778 140H100.194L100.843 139.024H102.139V140L106.028 139.675L106.352 138.699L107.324 138.049L108.944 137.398L110.565 135.772L111.861 136.422L112.833 137.073L114.778 137.398L116.398 136.422L118.343 135.121L120.611 133.495L121.907 131.544H123.528L125.472 132.519L127.093 130.568L127.417 128.942H129.037L130.009 126.99L131.306 127.316L131.954 126.99V125.689L132.926 124.388L135.843 126.99L139.083 126.015L142 124.388L139.083 120.16V117.883L135.194 116.583L132.926 113.655L130.981 106.5L132.278 104.874L132.926 99.3447L130.657 96.7427L129.037 91.2136L126.444 87.3107L128.065 83.0825L125.796 81.1311L121.259 82.432L118.991 79.8301V74.301L114.778 73.3252L110.241 74.301L107.648 75.6019H102.787L101.167 73.3252L94.6852 72.6748L90.4722 71.699L87.5556 73.3252L84.6389 71.699L86.9074 66.1699L85.9352 65.1942L83.3426 64.8689V61.6165L84.6389 55.7621L81.7222 52.835L79.4537 49.2573V46.9806L82.6944 45.6796L85.6111 44.7039L90.4722 43.0777L89.1759 38.8495L85.287 34.9466L81.3981 32.0194L76.8611 25.1893L76.537 17.7087L73.6204 14.4563L70.7037 13.4806L68.1111 8.2767L66.4907 6.32524L62.9259 6L56.7685 9.57767H55.1481L53.8519 7.30097H50.6111V10.5534L49.3148 10.8786V14.4563L48.0185 15.7573L47.3704 17.0583L48.0185 18.3592L50.287 19.9854L51.5833 21.6117L53.8519 23.2379V24.5388L52.5556 25.1893L51.2593 26.4903H50.287V30.7184L48.9907 31.6942L46.3981 32.9951L44.7778 34.2961H43.4815L42.1852 35.5971L41.8611 37.2233L40.5648 38.199L39.9167 39.5V45.3544L41.8611 46.3301L42.8333 47.6311L43.4815 49.5825L42.1852 50.233L43.1574 51.534L44.1296 52.1845V53.1602L43.4815 54.7864L43.8056 59.3398L43.1574 60.6408L42.8333 62.5922L42.5093 63.568L40.8889 64.5437L39.5926 65.8447L38.9444 68.4466L40.2407 69.7476L40.8889 71.0485V73.3252L39.9167 74.9515L38.9444 76.5777L37.9722 78.5291L37 78.8544V83.0825L38.2963 83.733L38.9444 84.7087L40.8889 85.034L41.537 86.335L42.5093 87.3107L45.75 86.9854V90.8884L46.3981 91.8641V95.4418L44.7778 96.7427L44.4537 98.3689L43.8056 100.646L42.8333 100.971L43.1574 102.597L44.7778 102.754L45.75 104.549L45.4259 105.524L44.4537 106.825L42.1852 107.15L41.537 108.451V110.078L42.8333 111.053L43.4815 111.704L43.1574 115.282L42.1852 116.908V118.026Z" stroke="#7B9AE3" stroke-width="2" stroke-linejoin="round"/>
</g>
<defs>
<clipPath id="clip0_1564_3">
<rect width="179" height="145" fill="white"/>
</clipPath>
</defs>
</svg>
