<svg width="179" height="145" viewBox="0 0 179 145" fill="none" xmlns="http://www.w3.org/2000/svg">
<g clip-path="url(#clip0_1564_3)">
<rect width="179" height="145" fill="white"/>
<rect width="179" height="145" fill="white"/>
<path d="M127.4 135.805L128.6 137.402L127.4 139H125L123 137.802L120.2 136.604H117L115.4 135.405L113.8 133.408V131.411L111.8 129.414H109.4L107.8 130.613L106.2 131.411L103 131.012L101.8 130.213L99.8 126.619L99 125.82H97.8L96.2 127.417H95.8L94.2 125.82L92.2 125.42L91.4 125.021L91.8 121.826L90.6 120.628V117.432L89 116.234L87.4 113.838H85.4L83 112.64V111.441L80.2 110.643L78.6 109.844H74.2L73 111.841H71.8V109.045L72.2 106.249H69.8L68.6 107.447L68.2 105.45V102.655L66.6 101.057L64.6 99.8589H61.8L59.4 97.8619L58.6 95.8649L57.4 95.0661V93.0691L59.4 92.6697L60.6 91.8709L61.8 90.6727L61.4 89.0751H57.4L56.2 87.4775H55V84.6817L54.2 83.4835L56.2 83.0841L57.8 80.6877L57.4 78.6907L55.4 77.0931V73.0991L54.2 68.7057V65.9099L52.6 62.7147L51 59.5195V57.5225L52.2 56.3243L54.2 54.7267V53.5285L56.6 52.7297H57.8H60.6L61.4 50.7327H63L64.2 49.5345V45.9399L65.8 45.5405L69.4 44.7417H71L70.6 39.5495L70.2 38.3514L72.2 35.955H74.6H79.4L81.8 34.3574L84.6 33.5586L86.2 30.7628L87 28.7658L87.8 25.5706V23.5736L87 20.7778L88.2 19.5796L89.8 17.5826L90.2 15.5856L88.6 14.7868V13.988L90.2 12.7898L90.6 11.5916L91.4 11.991L93 12.3904L93.8 13.1892H99L99.8 12.3904H106.6L108.6 11.5916V9.59459H111L111.8 8.3964L113.8 7.5976L114.6 6.7988H119.4L120.2 6L122.2 7.5976L123.8 8.3964L125 7.5976L126.6 7.997L125.8 10.3934V11.5916V13.988L126.6 14.7868L126.2 16.7838L127.4 17.1832L129 19.1802L125.8 19.979V21.5766L126.6 23.973L125.8 25.1712L125 27.967L123 29.5646L122.2 35.5556L123.4 36.3544V40.7477L125.8 43.9429V46.3393L125 47.5375L124.2 50.3333L125.8 52.3303L125 54.7267L124.2 57.1231L121.4 59.9189L120.2 61.5165L121.4 65.9099L122.2 69.9039L123.4 73.8979L124.2 75.8949V81.8859L123.4 83.0841L121.4 84.6817V88.6757L122.2 89.8739V93.4685L121.4 96.6637L119.8 97.8619L121.4 99.4595V101.856L120.2 102.655V109.045L121.4 110.243L120.2 111.042V113.838L122.2 116.234L121.4 117.432V121.426L120.2 125.42L122.6 127.417L123.8 130.213L125.4 133.009L127.4 135.805Z" fill="#9CB8FC" stroke="#7B9AE3" stroke-width="2" stroke-linejoin="round"/>
</g>
<defs>
<clipPath id="clip0_1564_3">
<rect width="179" height="145" fill="white"/>
</clipPath>
</defs>
</svg>
