<svg width="179" height="145" viewBox="0 0 179 145" fill="none" xmlns="http://www.w3.org/2000/svg">
<g clip-path="url(#clip0_1564_3)">
<rect width="179" height="145" fill="white"/>
<rect width="179" height="145" fill="white"/>
<path d="M104.797 14.593L105.51 15.1506H105.668L105.986 14.7523L106.303 14.3541L107.412 13.6372L108.125 13L108.522 13.239H110.503L110.899 13.9558H111.216L112.722 13H113.436L113.99 13.4779L114.783 14.832L115.496 15.071L116.21 15.9471V17.7791L117.319 19.4518L118.825 20.4873L119.38 21.0448L119.538 22.2396L118.35 22.4786L117.636 22.6379L116.764 23.1158V23.5937L117.636 24.7088L118.112 25.1867L117.795 26.9391V27.3373L118.746 27.4967L118.587 28.0542L118.112 29.1693L118.825 29.488L119.538 29.01L120.648 29.3286L121.995 29.488L122.392 30.0455H123.739L124.373 29.6473L125.483 29.488L126.513 29.6473V30.6827L126.592 31.3996L127.068 31.6386L128.178 31.3996L128.732 31.8775L128.415 32.5147L128.178 32.8333L128.97 33.9485L129.366 35.3025L129.921 35.7805L129.763 37.3735L129.446 37.6125L129.921 39.4444L130.317 40.1613L131.427 40.3206V40.8782L131.665 41.3561L132.22 42.073H132.457L133.171 41.3561L133.805 40.4799H134.597H136.579L137.054 40.6392L137.926 42.2323H138.56L139.036 42.073L139.353 41.7544L140.462 42.2323L141.017 43.0288H141.334H141.81L142.127 42.2323L142.523 41.9137L143.395 41.3561L144.267 40.7985H146.01L146.882 40.1613L147.596 39.2055L149.101 39.3648L149.26 39.9224L149.656 40.6392L150.528 40.7985L150.687 41.1171V42.3916L152.351 44.2236L153.698 44.5422L154.57 45.4183L155.284 46.2149L156.155 45.9759L156.631 45.5776V45.1794L156.393 44.5422L156.314 44.0643L157.106 43.7457H157.899L158.137 44.6218L158.375 44.8608L159.088 45.0201L159.88 45.1794L160.197 44.8608L161.466 45.0201V45.3387L162.02 45.9759L163.368 46.0556L163.923 46.7724L164.794 46.6131L165.428 45.9759L165.825 45.5776L166.38 45.7369L166.855 46.7724L167.489 47.4096L167.885 47.5689L168.995 46.9317L169.391 47.4096H170.422L170.897 49.0823H171.135L172.324 49.3213L172.641 49.5602H173.354L174.543 48.4451H175.732L175.89 48.6841L175.336 49.5602L175.177 49.8788V50.3568L176.366 52.0295L176.604 52.1888L176.366 53.8614L175.653 54.9766L175.019 55.6934L174.702 56.7289L173.988 56.8882L173.671 57.1272L173.116 57.4458H172.641V58.4016L173.671 59.1981L175.653 59.5167L176.207 59.1185L176.604 59.2778V59.915L176.049 60.6319L175.732 60.7115L174.86 60.6319L174.147 60.4726L173.671 60.9505L173.275 61.747L173.116 62.8621L173.275 63.9772L174.543 64.1365L175.177 64.2959V64.9331V65.411L176.049 66.6058V67.0837L175.494 67.7209L175.653 68.1191L176.762 67.9598L177 68.1191V68.5971L176.207 69.1546V70.0308L175.89 70.2697V70.907V71.6238L175.336 72.261L175.653 72.8983L175.89 74.0134L175.494 75.1285H174.781H173.671L172.562 75.5268L172.007 75.6064L171.373 75.2878L170.818 75.1285L170.025 75.6064L169.391 76.0047L168.916 75.7657L168.599 75.2878H168.361L168.123 75.5268L167.727 75.7657H166.776L166.38 76.0047L166.142 76.5623L166.062 77.757V78.4739H165.745L164.874 78.7925L164.557 79.3501L164.319 79.5094H163.288L162.575 79.828L162.02 80.0669L161.703 80.3855L161.545 81.1024L161.703 82.5361L161.545 83.4123L160.911 84.2885L161.228 84.7664L162.1 84.8461V85.324L161.386 85.9612L161.149 86.5187L161.545 87.0763V87.7932L161.149 88.8287L160.911 88.9083L160.752 88.6693L160.673 88.1118L160.514 87.9525L160.118 88.1118H157.82L157.423 88.5897L156.869 88.9083L155.997 89.0676H155.68L155.521 88.5897L155.046 88.4304L154.808 88.5897L154.412 89.3066L154.015 90.1031L153.381 91.2979L153.223 91.7758H152.906L152.589 91.5368L152.113 91.2979H151.796L150.845 91.9351L149.656 92.7316L148.388 93.6874V94.245L147.992 94.8025H147.675L147.358 94.5636L146.803 94.245L146.09 94.1653L145.456 94.5636L144.108 95.0415L143.157 95.838L142.682 96.8735H142.285L142.048 96.4752L141.731 96.2363H140.621L139.511 96.4752L138.085 97.1124L137.054 98.0683L136.103 99.3427L135.073 99.9799L134.28 100.617L133.567 101.653L133.171 101.892L132.616 101.653V101.254L132.457 100.617L132.22 99.9799L131.823 99.5817H131.586V99.9799L131.823 100.458L132.061 101.015L131.823 101.653L131.11 102.29L130.476 103.086L130 103.644L129.525 103.485V103.325L129.129 103.086H128.891L128.574 103.644L128.336 104.042L127.94 104.679L127.543 105.476L128.178 105.556L128.098 106.033L128.574 106.432L128.891 107.388L129.129 108.184L128.891 108.343L128.574 108.184L128.415 107.627L128.098 107.069H127.781L127.306 106.75L126.989 106.033H126.751H126.355L126.196 106.432L126.038 106.75L125.8 107.228L125.166 107.627L124.928 107.388L124.532 106.989L124.373 106.432V105.874H124.928L125.483 105.635L125.324 105.237L124.928 105.317L124.373 105.237L124.215 104.759L123.612 104.415L123.264 104.679L123.184 105.476H122.867L122.471 104.759L122.233 104.201L121.995 103.803L121.678 103.644H121.361L121.124 103.963L120.727 104.415L120.569 105.237L120.331 105.476H119.935L119.459 105.078L119.221 104.52L118.904 104.201H118.667L118.191 104.52H117.953L117.716 104.042H117.399L116.764 104.52H116.21L116.051 104.759V105.078L116.923 105.237L117.953 106.272L118.904 107.149L119.459 107.228L119.697 106.989L120.173 106.671L120.807 106.989V107.388L121.044 108.184L121.361 108.503L121.837 108.184L121.995 107.627L122.709 107.547H123.66L124.215 107.865L124.056 108.503V108.901V109.14H124.532L125.245 108.901L125.641 108.981V109.299L125.324 109.538L125.007 110.096L125.166 110.574L126.513 109.936L126.989 110.096L128.732 109.697L127.702 110.414L127.543 111.052L127.702 111.529H128.891L129.129 112.167L130.238 112.326L131.189 113.441L131.665 114.238L131.189 115.273L130.952 115.751L132.061 117.025L132.854 116.866L134.201 117.503L135.152 117.902L136.658 117.185L138.005 116.866L138.481 116.149L139.036 115.432L138.798 114.875L139.036 114.317H139.511L139.749 115.114L140.304 115.751L140.938 115.91L141.413 115.751L141.968 114.636L142.999 114.238L144.742 114.317L146.803 114.636H147.992L148.467 115.273L148.309 115.91H147.992L147.596 115.751L147.041 115.592L146.486 115.91V116.548L145.931 116.866L145.773 118.38L145.931 119.176L146.486 119.495V119.813L146.169 119.973L145.059 120.371L144.742 120.689L144.346 121.008H143.791L143.078 120.689L142.444 120.53L142.206 120.689L141.651 121.486L140.145 121.645L139.908 121.486L139.749 121.167L139.036 120.53L138.005 119.813H136.658L136.183 120.132L135.469 120.689L135.152 121.167L134.914 122.521H133.884L133.726 123.159L133.012 123.318L132.457 123.955V125.15H132.061L131.427 124.592H130.635L130.238 124.991H128.495L128.178 125.309L125.879 126.345L125.404 127.141L124.69 129.133H124.215L123.739 129.531L123.105 130.088L122.471 131.044L121.361 131.522L120.727 132H120.173L119.856 131.522H119.538L119.142 131.841L118.27 132L117.161 131.522L116.764 130.566H116.21L114.942 130.088L114.466 129.69V129.133L115.179 128.973L115.576 128.575L115.972 127.778L115.813 126.743V125.787L116.527 124.991L116.764 124.114L116.21 121.884L115.576 121.247L114.466 120.291L113.753 119.973L112.881 120.291H112.088L111.137 119.495L109.631 118.22L108.76 117.742L107.491 117.583L106.699 118.22L105.827 118.539L105.193 118.38L104.717 117.981V117.344V116.707L105.589 115.91L106.699 115.114L107.65 114.636L107.888 114.317L108.442 113.441L109.394 113.043L110.345 112.645L111.137 112.007V111.768L111.375 111.609L112.088 111.768L112.722 111.609L114.466 110.255H115.338L115.576 109.857H116.606L117.082 109.14L117.161 108.503L116.923 108.343L116.606 108.582H116.051L115.734 108.025V106.432V105.874L115.179 105.795L115.021 106.75L114.466 107.149L113.753 106.989L113.356 106.432H112.96L112.564 105.874L111.93 105.795V105.078H111.692L110.899 106.113H110.662L110.345 105.795H110.028L109.631 106.272L107.888 106.113H107.174L106.699 106.432L105.589 106.591L104.48 107.149L102.894 106.91L102.023 106.432L101.547 105.635L100.438 105.476L99.8827 104.679L99.1694 104.52L98.3768 103.883L97.505 104.281H96.9502L96.6332 103.803L96.7917 103.325L97.2672 103.166L97.9805 103.485L98.4561 103.325L99.2486 102.847L99.4072 102.369V101.892L99.0901 101.732L98.3768 101.892L97.6635 101.414L96.6332 101.095L96.2369 101.175L95.6821 101.732L95.2065 101.254L94.731 100.697V100.458L96.0784 100.139L97.0294 100.458L98.139 100.697H99.6449L100.992 100.936L101.943 101.254L102.577 101.493L103.053 101.254L103.212 100.617L104.083 99.8206L104.48 99.4224L104.242 99.1038H104.083L103.529 99.5817L102.894 100.139H102.419L102.181 99.8206L101.706 99.4224H101.468L100.992 99.6613H100.438L100.2 99.1038H99.5657L99.1694 98.8648L98.8524 98.3072L98.4561 97.0328V96.6345L98.139 96.4752H97.822L97.7428 96.7938L98.0598 97.1921L98.139 97.7497V98.3869L97.6635 98.8648L97.0294 99.1038L96.0784 98.8648L95.6821 98.5462H95.2065L94.731 99.2631H94.3347L93.9384 99.1038L94.0177 98.7055L94.3347 97.5904L94.4932 97.0328L94.5725 96.7142L94.4932 96.6345H94.2554L93.9384 97.0328L93.7006 96.9531H93.5421V97.1921L93.8592 97.5904L93.7006 98.1479L92.6703 99.2631L91.957 99.4224L90.9266 99.1038L89.4207 99.2631L87.9941 99.9799H86.8053L86.4882 100.378V102.449L85.5371 103.564V104.52L84.1898 106.352H83.7935L82.9217 105.635V104.839L82.0498 104.281V103.564L81.4158 103.007L81.0987 102.131L80.3062 102.21L79.7514 103.007L79.6721 103.883L80.7024 104.839L81.4158 105.237L82.2083 105.635L82.4461 106.352L82.9217 106.83V107.467V107.865L82.0498 108.742L81.2572 109.777L80.7024 110.813H80.3854L80.3062 110.494L79.9891 110.255L79.6721 110.414V111.211L79.4343 111.29L78.8003 110.813H78.404L77.6114 111.689L77.4529 112.485H76.9774H76.5018V112.963L76.9774 113.441L76.6603 113.839L76.1848 114.238L75.7885 114.078L75.1544 113.282V112.645V112.167V111.689H74.5996L74.4411 112.167L74.2034 112.963V114.875L74.5996 115.193V115.512L74.4411 116.309L74.5996 116.627H75.5507L75.947 117.344L75.7885 118.857L75.5507 120.052L74.9167 120.212L74.7582 119.734L74.9167 119.096L74.5996 118.22L73.8863 117.742L73.2523 117.344L72.3804 116.866L70.4783 117.025L68.9724 117.742L67.625 118.857L66.9117 119.256L66.5154 118.857V117.902H66.1191L65.6436 118.459V119.734L65.4058 119.893L64.0584 119.734L63.1866 119.256L61.76 118.857L60.9674 118.22L60.6504 117.503L60.2541 116.627L59.62 115.99L59.937 115.512L60.9674 115.193L61.76 115.512H62.7111L63.1866 114.636V113.839L62.7111 113.441V112.485H63.1866L63.5036 112.167L63.8207 111.45H64.6132L65.4058 110.494V109.14L66.1191 108.503H66.9117L67.7835 108.184V107.865L67.625 107.228L67.7835 106.591L68.4968 105.795V105.396L67.625 104.281V103.166L67.4665 102.768L67.625 101.573L69.2101 100.617L70.0027 100.378H70.4783V101.573V102.449H70.8745L71.5086 101.812H72.2219L72.6182 101.095H73.2523V102.051L73.8863 102.21L74.4411 102.768H74.9167V102.21L75.1544 102.051L75.5507 101.573H75.947L76.5018 102.21V103.166H77.2944L77.4529 102.768H78.087H79.4343V102.449L79.1173 102.051L78.8003 101.573L78.2455 101.254L77.6114 100.936L77.4529 100.378L77.9284 99.9799L78.087 99.6613L77.9284 99.1038V96.3956L77.2944 95.5194H76.5018L75.7885 95.2805L75.1544 94.7229L74.5996 94.4839L74.2034 94.006L74.4411 93.2095L74.5996 92.4926L74.4411 92.174H73.8863H73.49V91.8554L74.1241 91.2979L73.8863 90.1031L74.4411 89.7845V88.6693L74.2034 88.3507L73.7278 88.1914L73.173 88.988H72.9352H72.4597L72.3012 88.1914L71.8256 87.4746L71.1123 86.7577H70.4783L69.9235 86.1205V85.324L70.1612 84.7664L70.6368 84.0495V82.6158L71.1123 82.0582L70.4783 81.421L70.9538 80.3855L70.4783 79.9873V79.2704L70.1612 78.9518L69.4479 78.7925L69.2101 79.2704H68.3383L67.8628 78.7925L67.308 77.5181L66.8324 76.4826L65.168 75.925L63.9792 76.0843L63.7414 77.0402L63.2659 77.2791L63.1073 76.9605V76.2436H62.5525H61.9977V75.925L62.3148 75.7657L62.5525 75.3675V74.7303H61.76L61.2844 75.2082H60.9674L60.8089 74.571H60.0956L59.8578 74.4913L59.6993 73.4558L59.0652 73.2965L58.5104 73.1372L58.1141 72.8186L57.7971 72.4203L57.2423 71.7035L56.7668 71.3052H55.4986L55.1816 71.0663H54.2305L53.2794 71.4645L52.6454 71.3052L52.2491 71.4645L51.5358 72.261L51.0602 72.4203L50.0299 71.8628H49.6336L49.2373 72.4203H48.6825L47.9692 71.7035H47.6522L47.1766 72.0221V72.8186L46.6218 73.7744H45.1952L44.7989 74.2523L44.3234 74.332L44.0063 74.0134H43.6893L43.4515 74.2523L42.5005 74.332L42.0249 74.571L41.8664 75.6064L40.5983 77.2791H38.062L36.7939 77.8367L31.8007 77.996L29.6608 80.3855H27.9171L27.1245 79.1111L26.332 78.8722L25.7772 78.3146L25.5394 77.5181L24.8261 76.6419L23.3995 76.3233L21.6558 77.2791L21.1803 76.8809L20.5462 77.0402L19.5159 75.925H19.1988L18.01 76.6419L17.6137 76.3233L17.4552 75.925L14.9189 74.8896L14.2056 75.2878H13.8886L11.9864 73.6151L11.3524 72.9779L11.1146 73.1372L9.92572 74.7303H9.68795L9.52944 74.2523H9.21241L8.65761 74.9692L8.18207 75.0489L8.02355 74.7303L8.34058 74.2523L8.18207 73.2965L7.54801 72.5797H6.83469H6.20063L5.96286 72.3407L5.01178 70.3494H3.90217L3.6644 70.0308L2.87183 67.6412H2.31703L2 67.243V65.0924L2.31703 64.6941L3.50589 64.4552L3.90217 63.9772L3.98143 63.4197L4.37772 62.0656L4.69475 61.747V60.7912L5.3288 60.5522V60.0743L6.67618 59.0388V57.9237H7.07246L7.62726 58.6406L8.81612 58.7999L9.45018 59.4371L9.76721 59.1981V58.1627L8.65761 56.9679L8.49909 56.49L9.13315 55.0562V53.7818L8.65761 52.2684V50.994L10.7183 48.6841L12.8582 46.2945L15.0774 44.1439L16.5833 42.7102L18.2477 41.6747L19.7536 39.7631L20.9425 39.6038H22.4484L22.8447 38.8072L23.2409 38.3293L23.6372 38.0107V36.4177V36.0194L22.7654 34.4264L22.6069 33.8688L22.8447 33.3909H24.0335V32.9926L23.2409 32.2758L22.9239 31.3996L22.3691 29.7269L22.1313 28.3728L21.2595 27.178L20.3084 25.9833L20.784 25.2664L21.0217 24.4699L20.3084 22.7175L20.0707 21.921L20.784 21.4431H22.1313H22.6069L23.6372 22.0803H24.4298L25.3016 21.4431L26.0942 20.8059L27.0453 19.8501V18.9739L28.1549 18.257H30.6911H33.7822L34.8918 17.8588H35.9221L37.111 18.257L38.9339 18.8146L39.885 18.7349L40.4398 18.496H41.3116L41.6286 18.7349L43.4515 18.9739L44.4819 19.8501H46.067L46.7803 20.7262L48.7618 20.8059L50.4262 21.8414L51.6943 21.7617L52.0906 21.5228L53.3587 21.7617L53.5172 23.2751L54.2305 23.4344L54.389 24.3902H55.4194L55.9742 23.9123L56.6875 23.8327L57.0838 24.3902L57.8764 24.4699V25.2664L57.5593 25.9036L58.1934 26.3019L58.9067 25.5054V24.7088L59.303 24.2309H59.62L60.3333 25.0274H61.76L62.5525 23.9123L62.8696 23.8327L63.7414 25.5054H64.1377L64.9303 25.0274L66.4361 25.2664V25.9036L66.6739 27.178H67.5457L67.7043 26.3019L68.4968 25.2664H69.6857L70.399 24.3902H71.2708L72.0634 25.7443V26.7798L72.4597 27.2577L72.6975 28.0542L73.49 27.8949L74.1241 27.8153L74.6789 27.178L75.1544 27.0187L75.5507 26.4612L76.4226 26.3019V27.178L76.7396 27.2577L77.6907 27.178L78.5625 26.7001H80.9402L82.2083 27.8949V28.7711L82.5254 29.4083H83.1594L83.635 29.8862L84.1105 29.8066L84.269 29.249L84.7446 29.01V28.0542L84.269 27.4967L84.3483 26.3019L83.7142 25.7443V24.9478L84.0312 24.6292V23.753L84.5861 23.1954L84.7446 22.8768L84.9823 21.7617L86.0127 20.6466L86.3297 20.0094L87.5186 18.9739L87.6771 18.0181L89.5 17.6198L90.2926 18.257L91.3229 17.3012H93.8592L96.1576 17.4605L96.5539 18.257L97.4257 18.0977L98.4561 18.257L99.962 16.9826L100.358 14.0355H102.26L103.766 14.9913L104.797 14.593Z" fill="#9CB8FC" stroke="#7B9AE3" stroke-width="2" stroke-linejoin="round"/>
</g>
<defs>
<clipPath id="clip0_1564_3">
<rect width="179" height="145" fill="white"/>
</clipPath>
</defs>
</svg>
