<svg width="179" height="145" viewBox="0 0 179 145" fill="none" xmlns="http://www.w3.org/2000/svg">
<g clip-path="url(#clip0_1564_3)">
<rect width="179" height="145" fill="white"/>
<rect width="179" height="145" fill="white"/>
<path d="M134.012 53.0592L134.739 56.3296L134.375 59.6L132.559 62.1437L130.378 63.2338L128.562 65.0507L129.652 67.231L132.195 68.3211V69.4113L130.015 71.2282L131.105 72.3183L132.559 73.0451L134.375 74.1352L134.012 78.8592H135.102L136.556 80.3127V84.6732H138.009L140.553 85.4L141.643 86.8535L139.099 88.6704L141.643 89.3972L142.006 91.2141L144.186 92.3042L146.73 95.5746L147.456 100.299L146.003 102.115V104.296L150 105.023L149.273 106.476L147.093 109.02L144.186 110.473L142.733 108.293L141.643 107.566L139.826 108.656L138.009 110.473L136.556 111.927L139.099 114.834L142.733 116.287L146.003 119.194L147.456 121.738L145.276 122.465H142.733V123.192L140.553 124.282L138.009 122.465L135.465 123.192H133.285L131.468 124.282L132.922 127.189V129.369L130.378 130.823H124.928L122.384 129.369L120.204 128.642L117.297 130.823L113.664 130.096H110.393L107.123 127.189L103.126 126.462V130.823L99.4925 134.093L96.2222 137L92.5886 127.915L84.5946 125.372L79.5075 126.462L78.7808 128.642L76.2372 130.823L75.1471 129.369V126.462H71.8769L71.1502 125.372L73.3303 122.465L72.6036 119.921H69.6967L67.5165 121.738H66.0631L64.973 119.194L60.6126 118.468L59.8859 114.47L55.1622 113.38L52.6186 111.2L48.2583 105.749L45.7147 104.296H40.991L39.1742 103.206H34.0871L33.7237 101.025V98.4817L34.0871 96.6648L30.8168 92.3042L29 91.5775V89.9514L30.4535 87.2169L30.8168 82.1296L31.1802 81.0394L31.5435 78.4958L30.8168 77.4056L31.1802 75.9521L31.5435 64.3239L32.2703 62.8704L34.8138 61.0535L35.5405 58.5099L36.2673 58.1465H39.9009L40.2643 56.693L42.4444 56.3296H43.5345L45.3514 57.7831L47.5315 58.5099L48.985 57.7831L51.5285 56.693L52.6186 56.3296L52.982 52.6958L52.2553 50.5155V47.9718L52.982 47.6085L52.2553 46.1549V43.9746L50.8018 42.5211V39.6141L49.3483 37.0704L47.8949 34.8901L47.1682 32.7099L48.6216 31.6197L50.0751 31.2563L49.7117 27.6225L50.4384 25.4423L51.1652 23.9887L50.0751 21.8085L49.3483 19.2648L50.0751 18.538L52.2553 17.8113V16.3577L53.7087 15.631L55.5255 14.9042L58.7958 15.631H62.4294L65.3363 13.8141L69.3333 14.9042L71.8769 13.8141L75.1471 14.9042L79.5075 13.0873H82.4144L85.3213 14.1775L87.8649 13.0873L88.955 13.8141L91.1351 14.1775L94.042 11.6338L95.1321 9.8169L96.2222 8H99.4925L101.309 10.5437V13.8141L102.763 14.9042L103.126 18.538L101.309 19.9915L100.219 21.8085L103.126 26.8958L105.67 28.7127H114.39L116.934 27.9859L119.477 25.8056L122.021 25.0789L124.565 24.3521L126.745 25.4423L126.018 26.8958L124.928 28.7127L125.291 30.5296L127.471 32.3465L128.198 33.4366L126.745 35.6169L127.471 36.707L128.562 38.1606L128.198 40.3408L125.655 41.7944L125.291 44.338L126.745 45.0648L128.198 47.6085L130.378 49.062L134.012 53.0592Z" fill="#9CB8FC" stroke="#7B9AE3" stroke-width="2" stroke-linejoin="round"/>
</g>
<defs>
<clipPath id="clip0_1564_3">
<rect width="179" height="145" fill="white"/>
</clipPath>
</defs>
</svg>
