<svg width="179" height="145" viewBox="0 0 179 145" fill="none" xmlns="http://www.w3.org/2000/svg">
<g clip-path="url(#clip0_1564_3)">
<rect width="179" height="145" fill="white"/>
<rect width="179" height="145" fill="white"/>
<path d="M134.085 16.2997V10.9259H132.284L126.879 9.58249L121.025 7.79125L117.872 6H112.918H107.514L102.56 7.79125H96.7057H85.8972H76.8901H71.0355L64.7305 12.2694L63.8298 16.2997L62.4787 19.4343L57.0745 24.3603L52.1206 27.4949L48.5177 29.2862H45.3652L41.3121 27.4949L38.6099 25.7037H32.305L27.3511 26.5993L26 29.2862L30.5035 41.3771V44.5118L27.3511 49.8855V51.6768L32.305 57.9461L37.2589 64.6633V67.3502L40.4113 77.6498L43.5638 86.6061L46.7163 90.1886V92.8754H42.2128L40.4113 93.771V96.9057L43.5638 101.832L45.3652 106.31L46.7163 109.892L49.4184 111.236L51.6702 113.923L54.3723 115.714L56.6241 113.027L58.4255 112.131L62.0284 113.923V117.505H63.8298L66.5319 120.192L65.1809 121.983L63.8298 123.327V127.805L65.1809 130.044L67.4326 128.7L73.2872 130.044V131.835L76.4397 134.074L78.6915 139L80.9433 136.761H84.5461L90.8511 137.657L94.4539 139H97.6064L101.209 136.761V134.074L99.8582 131.835L97.6064 130.044V127.805L99.8582 126.461V124.222L101.209 121.088L103.461 121.983H108.415V120.192V117.505H112.918V112.131H120.574H123.277H126.879L132.284 115.714H136.787L139.039 113.027V104.966L141.291 103.623L143.092 101.384H145.794L147.596 98.697V93.771H149.397V89.7407H153V87.9495L152.099 87.0539V83.4714L150.748 81.6801H146.695L145.794 80.7845L146.695 76.7542L150.748 75.4108L152.099 73.1717L149.397 68.6936L144.894 67.3502L143.092 63.3199L141.291 59.7374L140.39 56.1549H136.787H128.23L126.879 47.1987V45.8552V43.1684L129.131 39.5859V36.0034L128.23 34.6599L125.528 31.5253V27.0471L129.131 23.0168L131.383 19.4343L134.085 16.2997Z" fill="#9CB8FC" stroke="#7B9AE3" stroke-width="2" stroke-linejoin="round"/>
</g>
<defs>
<clipPath id="clip0_1564_3">
<rect width="179" height="145" fill="white"/>
</clipPath>
</defs>
</svg>
