<svg width="179" height="145" viewBox="0 0 179 145" fill="none" xmlns="http://www.w3.org/2000/svg">
<g clip-path="url(#clip0_1564_3)">
<rect width="179" height="145" fill="white"/>
<rect width="179" height="145" fill="white"/>
<path d="M60.5 18.5L64 21.5L65 22V27L66.5 30L69 32L72 36L76 37H80L81 41V43.5L86.5 45.5H90.5L94.5 47.5L96 50H100.5L102 51H103.5L104.5 52.5L107 53.5L110 56.5L111.5 59.5H115.5L117 61.5V65L118.5 67L122 70V73L125 73.5L128.5 76L133.5 74.5V73H138V76L137 77.5L136 83L137 87.5L141.5 89.5L144 87.5H147L149.5 90L153 94L158 98.5V101.5L160 103.5V106L157.5 109L160 113.5L164 116.5V120L163 123L161 125V128L160 129.5L151 128.5L144 131L142 133.5H140L137 131L133.5 132L131 129L127.5 125L125 124L120.5 127L118 128.5H116L113.5 125L109 123L102 121L98 118L95.5 120L91.5 121L86.5 116.5L76.5 107H74.5L68.5 114L67 118H65.5L63.5 115H62L60 116.5L58.5 118H56L57 116.5L56 111L54.5 107L50 104H44.5L42 102.5L36 90H28.5L26.5 87.5L22 73H19L17 71L16 58L19 55L26.5 52.5L28.5 50L29.5 47L31 40L33.5 36V30.5L37 28.5L38 25.5L46.5 18.5V14L48 13L53 17L60.5 18.5Z" fill="#9CB8FC" stroke="#7B9AE3" stroke-width="2" stroke-linejoin="round"/>
</g>
<defs>
<clipPath id="clip0_1564_3">
<rect width="179" height="145" fill="white"/>
</clipPath>
</defs>
</svg>
