<svg width="179" height="145" viewBox="0 0 179 145" fill="none" xmlns="http://www.w3.org/2000/svg">
<g clip-path="url(#clip0_1564_3)">
<rect width="179" height="145" fill="white"/>
<rect width="179" height="145" fill="white"/>
<path d="M28.9184 55.4425L21.8418 58.0575V64.408L24.8214 70.3851H30.0357V69.2644L31.1531 67.7701H33.3878L36.7398 71.1322L34.8776 75.2414L35.9949 80.0977L39.3469 84.2069V89.4368L40.4643 92.0517L44.5612 92.7989L46.7959 94.6667L50.8929 98.0287V100.644L49.4031 101.391L47.9133 106.247L46.7959 108.862H44.5612L45.3061 111.851L49.4031 112.598V115.213L47.9133 117.454L50.8929 119.695L54.2449 120.443L55.3622 123.431L60.2041 124.552L63.9286 125.299V126.793L65.4184 135.011L66.9082 138L69.1429 135.759L73.2398 131.649L72.8673 127.54L71.0051 125.299V123.805L72.8673 123.431L75.8469 127.914L76.5918 132.397L78.0816 133.891H79.9439L82.551 129.408L87.0204 125.672L92.9796 121.937L96.7041 115.96L101.918 111.851L108.25 108.862L113.464 107.741L119.423 106.994L122.031 109.983H123.52L125.383 105.5L130.224 101.764L136.184 99.8966L139.163 98.4023H142.143L146.24 101.017H148.474L150.337 98.7759L150.709 95.7874L157.786 89.8103L155.551 86.8218L156.296 84.5805L157.786 83.4598H160.02V81.9655L158.903 81.592V79.7241L160.765 78.2299L158.903 77.4828H156.296L155.551 76.7356L154.434 74.1207L151.827 71.1322L149.964 70.3851L148.474 68.8908L147.357 67.7701L148.474 66.2759L149.964 64.0345L151.082 62.9138L148.474 62.5402V61.046L149.964 59.1782L152.571 60.6724H154.806L156.296 58.431L157.041 54.3218H160.765L161.51 51.7069L163 49.4655L161.51 47.5977L157.041 47.2241L155.551 46.1035L152.571 43.8621L151.082 41.9943L148.474 40.5L145.867 42.7414L144.378 41.2471L141.026 39.3793L138.046 37.8851V34.8966L135.811 33.7759L134.321 29.2931L129.852 27.7989V22.9425L127.99 21.8218L127.245 20.3276L126.5 23.6897L124.265 25.5575L122.403 24.8103H119.423L118.306 26.3046L115.699 26.6782L113.464 25.5575L112.719 23.3161H110.857L110.112 24.8103L108.995 26.6782L105.643 25.5575L104.898 23.3161L107.878 22.1954V19.954L104.898 18.4598L103.036 15.4713L104.153 13.2299L103.036 12.1092L102.291 13.2299H100.429L99.6837 8.37356H96.7041L93.7245 10.6149L89.6275 8.37356L85.1582 8L82.1786 9.12069L78.0816 10.6149V9.86782L75.102 9.49425L72.1224 10.6149L69.8878 8.37356L65.7908 8L64.301 9.49425H56.1071V10.6149L52.7551 12.1092L49.7755 11.7356L48.2857 9.86782H47.5408V12.1092L48.2857 13.977V15.4713H46.4235V16.9655L49.0306 18.4598L52.0102 21.4483L51.2653 23.3161H49.0306L46.4235 24.8103L47.5408 27.4253L51.2653 29.6667L52.7551 31.908L51.2653 34.1494L53.8724 36.0172V42.3678L52.7551 44.9828L54.6173 49.8391L49.0306 52.0805H41.9541H35.9949L28.9184 55.4425Z" fill="#9CB8FC"/>
<path d="M17 55.4425L21.8418 58.0575M21.8418 58.0575L28.9184 55.4425L35.9949 52.0805H41.9541H49.0306L54.6173 49.8391L52.7551 44.9828L53.8724 42.3678V36.0172L51.2653 34.1494L52.7551 31.908L51.2653 29.6667L47.5408 27.4253L46.4235 24.8103L49.0306 23.3161H51.2653L52.0102 21.4483L49.0306 18.4598L46.4235 16.9655V15.4713H48.2857V13.977L47.5408 12.1092V9.86782H48.2857L49.7755 11.7356L52.7551 12.1092L56.1071 10.6149V9.49425H64.301L65.7908 8L69.8878 8.37356L72.1224 10.6149L75.102 9.49425L78.0816 9.86782V10.6149L82.1786 9.12069L85.1582 8L89.6276 8.37356L93.7245 10.6149L96.7041 8.37356H99.6837L100.429 13.2299H102.291L103.036 12.1092L104.153 13.2299L103.036 15.4713L104.898 18.4598L107.878 19.954V22.1954L104.898 23.3161L105.643 25.5575L108.995 26.6782L110.112 24.8103L110.857 23.3161H112.719L113.464 25.5575L115.699 26.6782L118.306 26.3046L119.423 24.8103H122.403L124.265 25.5575L126.5 23.6897L127.245 20.3276L127.99 21.8218L129.852 22.9425V27.7989L134.321 29.2931L135.811 33.7759L138.046 34.8966V37.8851L141.026 39.3793L144.378 41.2471L145.867 42.7414L148.474 40.5L151.082 41.9943L152.571 43.8621L155.551 46.1034L157.041 47.2241L161.51 47.5977L163 49.4655L161.51 51.7069L160.765 54.3218H157.041L156.296 58.431L154.806 60.6724H152.571L149.964 59.1782L148.474 61.046V62.5402L151.082 62.9138L149.964 64.0345L148.474 66.2759L147.357 67.7701L148.474 68.8908L149.964 70.3851L151.827 71.1322L154.434 74.1207L155.551 76.7356L156.296 77.4828H158.903L160.765 78.2299L158.903 79.7241V81.592L160.02 81.9655V83.4598H157.786L156.296 84.5805L155.551 86.8218L157.786 89.8103L150.709 95.7874L150.337 98.7759L148.474 101.017H146.24L142.143 98.4023H139.163L136.184 99.8966L130.224 101.764L125.383 105.5L123.52 109.983H122.031L119.423 106.994L113.464 107.741L108.25 108.862L101.918 111.851L96.7041 115.96L92.9796 121.937L87.0204 125.672L82.551 129.408L79.9439 133.891H78.0816L76.5918 132.397L75.8469 127.914L72.8673 123.431L71.0051 123.805V125.299L72.8673 127.54L73.2398 131.649L69.1429 135.759L66.9082 138L65.4184 135.011L63.9286 126.793V125.299L60.2041 124.552L55.3622 123.431L54.2449 120.443L50.8929 119.695L47.9133 117.454L49.4031 115.213V112.598L45.3061 111.851L44.5612 108.862H46.7959L47.9133 106.247L49.4031 101.391L50.8929 100.644V98.0287L46.7959 94.6667L44.5612 92.7989L40.4643 92.0517L39.3469 89.4368V84.2069L35.9949 80.0977L34.8776 75.2414L36.7398 71.1322L33.3878 67.7701H31.1531L30.0357 69.2644V70.3851H24.8214L21.8418 64.408V58.0575Z" stroke="#7B9AE3" stroke-width="2" stroke-linejoin="round"/>
</g>
<defs>
<clipPath id="clip0_1564_3">
<rect width="179" height="145" fill="white"/>
</clipPath>
</defs>
</svg>
