<svg width="22" height="22" viewBox="0 0 22 22" fill="none" xmlns="http://www.w3.org/2000/svg">
<path d="M12.6263 1.7216H1V21H20.2086V10.1907M7.51521 10.6365L5.99874 16.4868L11.6153 14.9268M7.51521 10.6365L11.6153 14.9268M7.51521 10.6365L15.2681 2.50166M11.6153 14.9268C13.6954 12.7796 17.4256 8.91382 19.4223 6.79923M11.6153 10.6365L15.6031 6.56907M15.2681 2.50166L16.2771 1.44301C16.6889 1.1087 17.7261 0.640674 18.5798 1.44301C19.4336 2.24535 20.1712 3.00312 20.4333 3.28171C20.789 3.67174 21.3432 4.64123 20.7141 5.39899C20.5573 5.5879 20.0854 6.097 19.4223 6.79923M15.2681 2.50166L19.4223 6.79923" stroke="black" stroke-linecap="round" stroke-linejoin="round"/>
</svg>
