<svg width="299" height="118" viewBox="0 0 299 118" fill="none" xmlns="http://www.w3.org/2000/svg">
<path d="M2.47461 8.20879V51.3044H7.29985V34.3124H11.5683C18.435 34.3124 21.6518 30.7417 21.6518 23.9079V18.7364C21.6518 12.2105 18.7443 8.20879 11.9395 8.20879H2.47461ZM7.29985 30.0029V12.5799H11.9395C15.4656 12.5799 16.8885 14.55 16.8885 18.4902V24.2157C16.8885 28.3406 15.1563 30.0029 11.5683 30.0029H7.29985ZM25.0601 40.8999C25.0601 47.4258 28.3388 51.7354 34.958 51.7354C41.6391 51.7354 44.9178 47.4258 44.9178 40.8999V18.6133C44.9178 12.0258 41.6391 7.77783 34.958 7.77783C28.3388 7.77783 25.0601 12.0258 25.0601 18.6133V40.8999ZM29.8235 18.367C29.8235 14.4884 31.4937 12.149 34.958 12.149C38.4842 12.149 40.0926 14.4884 40.0926 18.367V41.1462C40.0926 45.0864 38.4842 47.3643 34.958 47.3643C31.4937 47.3643 29.8235 45.0864 29.8235 41.1462V18.367ZM58.9402 7.77783C52.321 7.77783 49.2897 11.9643 49.2897 18.5517V21.2606H53.7438V18.367C53.7438 14.4884 55.3522 12.149 58.8165 12.149C62.3427 12.149 63.8892 14.3653 63.8892 18.798V20.7681C63.8892 24.5236 61.7859 26.6784 58.5691 26.6784H56.2802V30.9879H58.3216C61.9715 30.9879 63.8892 33.2043 63.8892 37.3907V40.7768C63.8892 45.0864 62.3427 47.3643 58.8165 47.3643C55.3522 47.3643 53.7438 45.0248 53.7438 41.1462V36.7135H49.2278V40.8999C49.2278 47.4258 52.321 51.7354 58.9402 51.7354C65.6213 51.7354 68.7145 47.4258 68.7145 40.8999V37.5138C68.7145 33.2043 67.0442 29.8797 63.3943 28.6484C66.9205 27.3556 68.7145 24.1542 68.7145 19.7215V18.6133C68.7145 12.0874 65.6213 7.77783 58.9402 7.77783ZM95.6688 8.20879H90.658L86.7606 23.1691L84.2243 34.0046L81.2549 23.1691L76.8627 8.20879H72.0375L81.9973 39.9764L81.0075 42.8084C80.2033 46.0714 78.533 47.2411 74.8213 47.0564V51.366C82.6778 51.7354 84.9048 48.2877 86.3895 41.8234L95.6688 8.20879ZM122.022 16.6432V51.3044H126.599V8.20879H119.856L112.99 42.6237L105.876 8.20879H99.1325V51.3044H103.339V16.951L110.515 51.2429H115.155L122.022 16.6432ZM147.041 31.9114V51.3044H151.866V8.20879H147.041V27.6018H136.401V8.20879H131.576V51.3044H136.401V31.9114H147.041ZM172.664 42.6237L174.335 51.3044H179.16L170.87 8.20879H163.88L155.59 51.3044H160.045L161.715 42.6237H172.664ZM167.097 13.6265L171.984 38.4989H162.333L167.097 13.6265Z" fill="white"/>
<path d="M140.695 59.082C134.076 59.082 130.982 63.3916 130.982 69.9175V92.2041C130.982 98.73 134.076 103.04 140.695 103.04C147.376 103.04 150.469 98.73 150.469 92.2041V86.8479H145.891V92.4504C145.891 96.329 144.345 98.6685 140.818 98.6685C137.354 98.6685 135.746 96.329 135.746 92.4504V69.6712C135.746 65.7926 137.354 63.4532 140.818 63.4532C144.345 63.4532 145.891 65.7926 145.891 69.6712V73.7961H150.469V69.9175C150.469 63.3916 147.376 59.082 140.695 59.082ZM170.938 68.3168V102.609H175.268V59.513H169.886L163.577 78.0441L159.122 91.65V59.513H154.854V102.609H159.865L166.298 82.5999L170.938 68.3168ZM197.674 63.8841V102.609H202.499V59.513H184.868L183.693 92.1426C183.569 96.2674 182.889 98.2991 178.868 98.2991V102.67H179.672C186.291 102.609 188.147 98.73 188.395 91.8963L189.384 63.8841H197.674ZM223.491 93.9279L225.161 102.609H229.986L221.697 59.513H214.707L206.417 102.609H210.871L212.541 93.9279H223.491ZM217.923 64.9307L222.81 89.8031H213.16L217.923 64.9307Z" fill="white"/>
<path d="M242.293 30.7825C242.293 16.6153 230.753 5.13037 216.517 5.13037C202.282 5.13037 190.741 16.6153 190.741 30.7825" stroke="#9CB8FC" stroke-width="5"/>
<path d="M242.293 29.4324C242.293 16.0108 253.833 5.13037 268.069 5.13037C282.304 5.13037 293.845 16.0108 293.845 29.4324C293.845 44.0137 283.534 74.1481 242.293 97.4782" stroke="#9CB8FC" stroke-width="5"/>
</svg>
