<svg width="103" height="40" viewBox="0 0 103 40" fill="none" xmlns="http://www.w3.org/2000/svg">
<path d="M0.852539 2.78256V17.3913H2.51475V11.6313H3.98516C6.35061 11.6313 7.45875 10.4208 7.45875 8.1043V6.35126C7.45875 4.13908 6.45716 2.78256 4.11302 2.78256H0.852539ZM2.51475 10.1704V4.2643H4.11302C5.32771 4.2643 5.81785 4.93213 5.81785 6.26778V8.20865C5.81785 9.60691 5.22116 10.1704 3.98516 10.1704H2.51475ZM8.63282 13.8643C8.63282 16.0765 9.76227 17.5373 12.0425 17.5373C14.344 17.5373 15.4734 16.0765 15.4734 13.8643V6.30952C15.4734 4.07647 14.344 2.63647 12.0425 2.63647C9.76227 2.63647 8.63282 4.07647 8.63282 6.30952V13.8643ZM10.2737 6.22604C10.2737 4.91126 10.8491 4.11821 12.0425 4.11821C13.2572 4.11821 13.8112 4.91126 13.8112 6.22604V13.9478C13.8112 15.2834 13.2572 16.0556 12.0425 16.0556C10.8491 16.0556 10.2737 15.2834 10.2737 13.9478V6.22604ZM20.3039 2.63647C18.0237 2.63647 16.9795 4.0556 16.9795 6.28865V7.20691H18.5138V6.22604C18.5138 4.91126 19.0679 4.11821 20.2613 4.11821C21.476 4.11821 22.0087 4.86952 22.0087 6.37213V7.03995C22.0087 8.313 21.2842 9.04343 20.1761 9.04343H19.3876V10.5043H20.0908C21.3481 10.5043 22.0087 11.2556 22.0087 12.6747V13.8226C22.0087 15.2834 21.476 16.0556 20.2613 16.0556C19.0679 16.0556 18.5138 15.2626 18.5138 13.9478V12.4452H16.9582V13.8643C16.9582 16.0765 18.0237 17.5373 20.3039 17.5373C22.6054 17.5373 23.6709 16.0765 23.6709 13.8643V12.7165C23.6709 11.2556 23.0956 10.1286 21.8383 9.71126C23.0529 9.273 23.6709 8.18778 23.6709 6.68517V6.30952C23.6709 4.09734 22.6054 2.63647 20.3039 2.63647ZM32.9562 2.78256H31.2301L29.8875 7.85387L29.0138 11.5269L27.9909 7.85387L26.4779 2.78256H24.8157L28.2466 13.5513L27.9057 14.5113C27.6286 15.6173 27.0533 16.0139 25.7746 15.9513V17.4121C28.481 17.5373 29.2482 16.3687 29.7597 14.1773L32.9562 2.78256ZM42.0343 5.64169V17.3913H43.6112V2.78256H41.2884L38.9229 14.4486L36.4723 2.78256H34.1494V17.3913H35.5985V5.74604L38.0705 17.3704H39.6688L42.0343 5.64169ZM50.653 10.8173V17.3913H52.3152V2.78256H50.653V9.35647H46.9877V2.78256H45.3255V17.3913H46.9877V10.8173H50.653ZM59.4798 14.4486L60.0552 17.3913H61.7174L58.8618 2.78256H56.4537L53.5981 17.3913H55.1325L55.7079 14.4486H59.4798ZM57.5619 4.61908L59.2454 13.0504H55.921L57.5619 4.61908Z" fill="black"/>
<path d="M48.4668 20.0278C46.1866 20.0278 45.1211 21.4887 45.1211 23.7009V31.2557C45.1211 33.4678 46.1866 34.9287 48.4668 34.9287C50.7683 34.9287 51.8338 33.4678 51.8338 31.2557V29.44H50.2569V31.3391C50.2569 32.6539 49.7241 33.447 48.5094 33.447C47.3161 33.447 46.762 32.6539 46.762 31.3391V23.6174C46.762 22.3026 47.3161 21.5096 48.5094 21.5096C49.7241 21.5096 50.2569 22.3026 50.2569 23.6174V25.0157H51.8338V23.7009C51.8338 21.4887 50.7683 20.0278 48.4668 20.0278ZM58.8851 23.1583V34.7826H60.3768V20.1739H58.5228L56.3492 26.4557L54.8148 31.0678V20.1739H53.3444V34.7826H55.0705L57.2868 28L58.8851 23.1583ZM68.0951 21.6557V34.7826H69.7573V20.1739H63.6838L63.2789 31.2348C63.2363 32.633 63.0019 33.3217 61.6167 33.3217V34.8035H61.8937C64.174 34.7826 64.8133 33.4678 64.8985 31.1513L65.2395 21.6557H68.0951ZM76.9886 31.84L77.564 34.7826H79.2262L76.3706 20.1739H73.9625L71.1069 34.7826H72.6413L73.2167 31.84H76.9886ZM75.0706 22.0104L76.7542 30.4417H73.4298L75.0706 22.0104Z" fill="black"/>
<path d="M83.4656 10.4347C83.4656 5.6322 79.4902 1.73901 74.5863 1.73901C69.6825 1.73901 65.707 5.6322 65.707 10.4347" stroke="#9CB8FC" stroke-width="2"/>
<path d="M83.4658 9.977C83.4658 5.42729 87.4413 1.73901 92.3451 1.73901C97.249 1.73901 101.224 5.42729 101.224 9.977C101.224 14.9198 97.6727 25.1348 83.4658 33.0434" stroke="#9CB8FC" stroke-width="2"/>
</svg>
